<?xml version="1.0" encoding="utf-8"?>
<svg xmlns="http://www.w3.org/2000/svg" xmlns:xlink="http://www.w3.org/1999/xlink" width="600" height="400" viewBox="0 0 2400 1600">
<defs>
  <clipPath id="clip880">
    <rect x="0" y="0" width="2400" height="1600"/>
  </clipPath>
</defs>
<path clip-path="url(#clip880)" d="
M0 1600 L2400 1600 L2400 0 L0 0  Z
  " fill="#ffffff" fill-rule="evenodd" fill-opacity="1"/>
<defs>
  <clipPath id="clip881">
    <rect x="480" y="0" width="1681" height="1600"/>
  </clipPath>
</defs>
<path clip-path="url(#clip880)" d="
M225.723 1423.18 L2352.76 1423.18 L2352.76 123.472 L225.723 123.472  Z
  " fill="#ffffff" fill-rule="evenodd" fill-opacity="1"/>
<defs>
  <clipPath id="clip882">
    <rect x="225" y="123" width="2128" height="1301"/>
  </clipPath>
</defs>
<polyline clip-path="url(#clip882)" style="stroke:#000000; stroke-width:2; stroke-opacity:0.1; fill:none" points="
  225.723,1423.18 225.723,123.472 
  "/>
<polyline clip-path="url(#clip882)" style="stroke:#000000; stroke-width:2; stroke-opacity:0.1; fill:none" points="
  563.347,1423.18 563.347,123.472 
  "/>
<polyline clip-path="url(#clip882)" style="stroke:#000000; stroke-width:2; stroke-opacity:0.1; fill:none" points="
  900.971,1423.18 900.971,123.472 
  "/>
<polyline clip-path="url(#clip882)" style="stroke:#000000; stroke-width:2; stroke-opacity:0.1; fill:none" points="
  1238.6,1423.18 1238.6,123.472 
  "/>
<polyline clip-path="url(#clip882)" style="stroke:#000000; stroke-width:2; stroke-opacity:0.1; fill:none" points="
  1576.22,1423.18 1576.22,123.472 
  "/>
<polyline clip-path="url(#clip882)" style="stroke:#000000; stroke-width:2; stroke-opacity:0.1; fill:none" points="
  1913.84,1423.18 1913.84,123.472 
  "/>
<polyline clip-path="url(#clip882)" style="stroke:#000000; stroke-width:2; stroke-opacity:0.1; fill:none" points="
  2251.47,1423.18 2251.47,123.472 
  "/>
<polyline clip-path="url(#clip882)" style="stroke:#000000; stroke-width:2; stroke-opacity:0.1; fill:none" points="
  225.723,1358.63 2352.76,1358.63 
  "/>
<polyline clip-path="url(#clip882)" style="stroke:#000000; stroke-width:2; stroke-opacity:0.1; fill:none" points="
  225.723,1163.54 2352.76,1163.54 
  "/>
<polyline clip-path="url(#clip882)" style="stroke:#000000; stroke-width:2; stroke-opacity:0.1; fill:none" points="
  225.723,968.446 2352.76,968.446 
  "/>
<polyline clip-path="url(#clip882)" style="stroke:#000000; stroke-width:2; stroke-opacity:0.1; fill:none" points="
  225.723,773.353 2352.76,773.353 
  "/>
<polyline clip-path="url(#clip882)" style="stroke:#000000; stroke-width:2; stroke-opacity:0.1; fill:none" points="
  225.723,578.259 2352.76,578.259 
  "/>
<polyline clip-path="url(#clip882)" style="stroke:#000000; stroke-width:2; stroke-opacity:0.1; fill:none" points="
  225.723,383.166 2352.76,383.166 
  "/>
<polyline clip-path="url(#clip882)" style="stroke:#000000; stroke-width:2; stroke-opacity:0.1; fill:none" points="
  225.723,188.073 2352.76,188.073 
  "/>
<polyline clip-path="url(#clip880)" style="stroke:#000000; stroke-width:4; stroke-opacity:1; fill:none" points="
  225.723,1423.18 2352.76,1423.18 
  "/>
<polyline clip-path="url(#clip880)" style="stroke:#000000; stroke-width:4; stroke-opacity:1; fill:none" points="
  225.723,1423.18 225.723,123.472 
  "/>
<polyline clip-path="url(#clip880)" style="stroke:#000000; stroke-width:4; stroke-opacity:1; fill:none" points="
  225.723,1423.18 225.723,1407.58 
  "/>
<polyline clip-path="url(#clip880)" style="stroke:#000000; stroke-width:4; stroke-opacity:1; fill:none" points="
  563.347,1423.18 563.347,1407.58 
  "/>
<polyline clip-path="url(#clip880)" style="stroke:#000000; stroke-width:4; stroke-opacity:1; fill:none" points="
  900.971,1423.18 900.971,1407.58 
  "/>
<polyline clip-path="url(#clip880)" style="stroke:#000000; stroke-width:4; stroke-opacity:1; fill:none" points="
  1238.6,1423.18 1238.6,1407.58 
  "/>
<polyline clip-path="url(#clip880)" style="stroke:#000000; stroke-width:4; stroke-opacity:1; fill:none" points="
  1576.22,1423.18 1576.22,1407.58 
  "/>
<polyline clip-path="url(#clip880)" style="stroke:#000000; stroke-width:4; stroke-opacity:1; fill:none" points="
  1913.84,1423.18 1913.84,1407.58 
  "/>
<polyline clip-path="url(#clip880)" style="stroke:#000000; stroke-width:4; stroke-opacity:1; fill:none" points="
  2251.47,1423.18 2251.47,1407.58 
  "/>
<polyline clip-path="url(#clip880)" style="stroke:#000000; stroke-width:4; stroke-opacity:1; fill:none" points="
  225.723,1358.63 251.247,1358.63 
  "/>
<polyline clip-path="url(#clip880)" style="stroke:#000000; stroke-width:4; stroke-opacity:1; fill:none" points="
  225.723,1163.54 251.247,1163.54 
  "/>
<polyline clip-path="url(#clip880)" style="stroke:#000000; stroke-width:4; stroke-opacity:1; fill:none" points="
  225.723,968.446 251.247,968.446 
  "/>
<polyline clip-path="url(#clip880)" style="stroke:#000000; stroke-width:4; stroke-opacity:1; fill:none" points="
  225.723,773.353 251.247,773.353 
  "/>
<polyline clip-path="url(#clip880)" style="stroke:#000000; stroke-width:4; stroke-opacity:1; fill:none" points="
  225.723,578.259 251.247,578.259 
  "/>
<polyline clip-path="url(#clip880)" style="stroke:#000000; stroke-width:4; stroke-opacity:1; fill:none" points="
  225.723,383.166 251.247,383.166 
  "/>
<polyline clip-path="url(#clip880)" style="stroke:#000000; stroke-width:4; stroke-opacity:1; fill:none" points="
  225.723,188.073 251.247,188.073 
  "/>
<path clip-path="url(#clip880)" d="M 0 0 M225.723 1445.17 Q222.112 1445.17 220.283 1448.74 Q218.477 1452.28 218.477 1459.41 Q218.477 1466.51 220.283 1470.08 Q222.112 1473.62 225.723 1473.62 Q229.357 1473.62 231.163 1470.08 Q232.991 1466.51 232.991 1459.41 Q232.991 1452.28 231.163 1448.74 Q229.357 1445.17 225.723 1445.17 M225.723 1441.47 Q231.533 1441.47 234.588 1446.07 Q237.667 1450.66 237.667 1459.41 Q237.667 1468.13 234.588 1472.74 Q231.533 1477.32 225.723 1477.32 Q219.913 1477.32 216.834 1472.74 Q213.778 1468.13 213.778 1459.41 Q213.778 1450.66 216.834 1446.07 Q219.913 1441.47 225.723 1441.47 Z" fill="#000000" fill-rule="evenodd" fill-opacity="1" /><path clip-path="url(#clip880)" d="M 0 0 M553.729 1472.72 L561.368 1472.72 L561.368 1446.35 L553.058 1448.02 L553.058 1443.76 L561.322 1442.09 L565.997 1442.09 L565.997 1472.72 L573.636 1472.72 L573.636 1476.65 L553.729 1476.65 L553.729 1472.72 Z" fill="#000000" fill-rule="evenodd" fill-opacity="1" /><path clip-path="url(#clip880)" d="M 0 0 M895.624 1472.72 L911.944 1472.72 L911.944 1476.65 L889.999 1476.65 L889.999 1472.72 Q892.661 1469.96 897.245 1465.33 Q901.851 1460.68 903.032 1459.34 Q905.277 1456.81 906.157 1455.08 Q907.059 1453.32 907.059 1451.63 Q907.059 1448.87 905.115 1447.14 Q903.194 1445.4 900.092 1445.4 Q897.893 1445.4 895.439 1446.17 Q893.008 1446.93 890.231 1448.48 L890.231 1443.76 Q893.055 1442.62 895.508 1442.05 Q897.962 1441.47 899.999 1441.47 Q905.369 1441.47 908.564 1444.15 Q911.758 1446.84 911.758 1451.33 Q911.758 1453.46 910.948 1455.38 Q910.161 1457.28 908.055 1459.87 Q907.476 1460.54 904.374 1463.76 Q901.272 1466.95 895.624 1472.72 Z" fill="#000000" fill-rule="evenodd" fill-opacity="1" /><path clip-path="url(#clip880)" d="M 0 0 M1242.84 1458.02 Q1246.2 1458.74 1248.07 1461 Q1249.97 1463.27 1249.97 1466.61 Q1249.97 1471.72 1246.45 1474.52 Q1242.94 1477.32 1236.45 1477.32 Q1234.28 1477.32 1231.96 1476.88 Q1229.67 1476.47 1227.22 1475.61 L1227.22 1471.1 Q1229.16 1472.23 1231.48 1472.81 Q1233.79 1473.39 1236.32 1473.39 Q1240.71 1473.39 1243.01 1471.65 Q1245.32 1469.92 1245.32 1466.61 Q1245.32 1463.55 1243.17 1461.84 Q1241.04 1460.1 1237.22 1460.1 L1233.19 1460.1 L1233.19 1456.26 L1237.4 1456.26 Q1240.85 1456.26 1242.68 1454.89 Q1244.51 1453.5 1244.51 1450.91 Q1244.51 1448.25 1242.61 1446.84 Q1240.74 1445.4 1237.22 1445.4 Q1235.3 1445.4 1233.1 1445.82 Q1230.9 1446.24 1228.26 1447.11 L1228.26 1442.95 Q1230.92 1442.21 1233.24 1441.84 Q1235.57 1441.47 1237.64 1441.47 Q1242.96 1441.47 1246.06 1443.9 Q1249.16 1446.3 1249.16 1450.43 Q1249.16 1453.3 1247.52 1455.29 Q1245.88 1457.25 1242.84 1458.02 Z" fill="#000000" fill-rule="evenodd" fill-opacity="1" /><path clip-path="url(#clip880)" d="M 0 0 M1579.23 1446.17 L1567.42 1464.61 L1579.23 1464.61 L1579.23 1446.17 M1578 1442.09 L1583.88 1442.09 L1583.88 1464.61 L1588.81 1464.61 L1588.81 1468.5 L1583.88 1468.5 L1583.88 1476.65 L1579.23 1476.65 L1579.23 1468.5 L1563.63 1468.5 L1563.63 1463.99 L1578 1442.09 Z" fill="#000000" fill-rule="evenodd" fill-opacity="1" /><path clip-path="url(#clip880)" d="M 0 0 M1904.12 1442.09 L1922.48 1442.09 L1922.48 1446.03 L1908.4 1446.03 L1908.4 1454.5 Q1909.42 1454.15 1910.44 1453.99 Q1911.46 1453.8 1912.48 1453.8 Q1918.27 1453.8 1921.65 1456.98 Q1925.02 1460.15 1925.02 1465.56 Q1925.02 1471.14 1921.55 1474.24 Q1918.08 1477.32 1911.76 1477.32 Q1909.59 1477.32 1907.32 1476.95 Q1905.07 1476.58 1902.66 1475.84 L1902.66 1471.14 Q1904.75 1472.28 1906.97 1472.83 Q1909.19 1473.39 1911.67 1473.39 Q1915.67 1473.39 1918.01 1471.28 Q1920.35 1469.18 1920.35 1465.56 Q1920.35 1461.95 1918.01 1459.85 Q1915.67 1457.74 1911.67 1457.74 Q1909.79 1457.74 1907.92 1458.16 Q1906.07 1458.57 1904.12 1459.45 L1904.12 1442.09 Z" fill="#000000" fill-rule="evenodd" fill-opacity="1" /><path clip-path="url(#clip880)" d="M 0 0 M2251.87 1457.51 Q2248.73 1457.51 2246.87 1459.66 Q2245.05 1461.81 2245.05 1465.56 Q2245.05 1469.29 2246.87 1471.47 Q2248.73 1473.62 2251.87 1473.62 Q2255.02 1473.62 2256.85 1471.47 Q2258.7 1469.29 2258.7 1465.56 Q2258.7 1461.81 2256.85 1459.66 Q2255.02 1457.51 2251.87 1457.51 M2261.16 1442.86 L2261.16 1447.11 Q2259.4 1446.28 2257.59 1445.84 Q2255.81 1445.4 2254.05 1445.4 Q2249.42 1445.4 2246.97 1448.53 Q2244.54 1451.65 2244.19 1457.97 Q2245.55 1455.96 2247.61 1454.89 Q2249.67 1453.8 2252.15 1453.8 Q2257.36 1453.8 2260.37 1456.98 Q2263.4 1460.12 2263.4 1465.56 Q2263.4 1470.89 2260.25 1474.11 Q2257.11 1477.32 2251.87 1477.32 Q2245.88 1477.32 2242.71 1472.74 Q2239.54 1468.13 2239.54 1459.41 Q2239.54 1451.21 2243.42 1446.35 Q2247.31 1441.47 2253.86 1441.47 Q2255.62 1441.47 2257.41 1441.81 Q2259.21 1442.16 2261.16 1442.86 Z" fill="#000000" fill-rule="evenodd" fill-opacity="1" /><path clip-path="url(#clip880)" d="M 0 0 M127.487 1361.03 L139.964 1361.03 L139.964 1364.82 L127.487 1364.82 L127.487 1361.03 Z" fill="#000000" fill-rule="evenodd" fill-opacity="1" /><path clip-path="url(#clip880)" d="M 0 0 M145.843 1371.98 L153.482 1371.98 L153.482 1345.61 L145.172 1347.28 L145.172 1343.02 L153.436 1341.35 L158.112 1341.35 L158.112 1371.98 L165.751 1371.98 L165.751 1375.91 L145.843 1375.91 L145.843 1371.98 Z" fill="#000000" fill-rule="evenodd" fill-opacity="1" /><path clip-path="url(#clip880)" d="M 0 0 M170.82 1370.03 L175.704 1370.03 L175.704 1375.91 L170.82 1375.91 L170.82 1370.03 Z" fill="#000000" fill-rule="evenodd" fill-opacity="1" /><path clip-path="url(#clip880)" d="M 0 0 M180.82 1341.35 L199.176 1341.35 L199.176 1345.29 L185.102 1345.29 L185.102 1353.76 Q186.121 1353.41 187.139 1353.25 Q188.158 1353.07 189.176 1353.07 Q194.963 1353.07 198.343 1356.24 Q201.723 1359.41 201.723 1364.82 Q201.723 1370.4 198.251 1373.51 Q194.778 1376.58 188.459 1376.58 Q186.283 1376.58 184.014 1376.21 Q181.769 1375.84 179.362 1375.1 L179.362 1370.4 Q181.445 1371.54 183.667 1372.09 Q185.889 1372.65 188.366 1372.65 Q192.371 1372.65 194.709 1370.54 Q197.047 1368.44 197.047 1364.82 Q197.047 1361.21 194.709 1359.11 Q192.371 1357 188.366 1357 Q186.491 1357 184.616 1357.42 Q182.764 1357.83 180.82 1358.71 L180.82 1341.35 Z" fill="#000000" fill-rule="evenodd" fill-opacity="1" /><path clip-path="url(#clip880)" d="M 0 0 M126.492 1165.94 L138.968 1165.94 L138.968 1169.73 L126.492 1169.73 L126.492 1165.94 Z" fill="#000000" fill-rule="evenodd" fill-opacity="1" /><path clip-path="url(#clip880)" d="M 0 0 M144.848 1176.88 L152.487 1176.88 L152.487 1150.52 L144.177 1152.19 L144.177 1147.93 L152.441 1146.26 L157.116 1146.26 L157.116 1176.88 L164.755 1176.88 L164.755 1180.82 L144.848 1180.82 L144.848 1176.88 Z" fill="#000000" fill-rule="evenodd" fill-opacity="1" /><path clip-path="url(#clip880)" d="M 0 0 M169.825 1174.94 L174.709 1174.94 L174.709 1180.82 L169.825 1180.82 L169.825 1174.94 Z" fill="#000000" fill-rule="evenodd" fill-opacity="1" /><path clip-path="url(#clip880)" d="M 0 0 M189.778 1149.34 Q186.167 1149.34 184.339 1152.9 Q182.533 1156.44 182.533 1163.57 Q182.533 1170.68 184.339 1174.25 Q186.167 1177.79 189.778 1177.79 Q193.413 1177.79 195.218 1174.25 Q197.047 1170.68 197.047 1163.57 Q197.047 1156.44 195.218 1152.9 Q193.413 1149.34 189.778 1149.34 M189.778 1145.63 Q195.588 1145.63 198.644 1150.24 Q201.723 1154.82 201.723 1163.57 Q201.723 1172.3 198.644 1176.91 Q195.588 1181.49 189.778 1181.49 Q183.968 1181.49 180.889 1176.91 Q177.834 1172.3 177.834 1163.57 Q177.834 1154.82 180.889 1150.24 Q183.968 1145.63 189.778 1145.63 Z" fill="#000000" fill-rule="evenodd" fill-opacity="1" /><path clip-path="url(#clip880)" d="M 0 0 M126.26 970.842 L138.737 970.842 L138.737 974.638 L126.26 974.638 L126.26 970.842 Z" fill="#000000" fill-rule="evenodd" fill-opacity="1" /><path clip-path="url(#clip880)" d="M 0 0 M153.806 954.245 Q150.195 954.245 148.367 957.81 Q146.561 961.351 146.561 968.481 Q146.561 975.587 148.367 979.152 Q150.195 982.694 153.806 982.694 Q157.441 982.694 159.246 979.152 Q161.075 975.587 161.075 968.481 Q161.075 961.351 159.246 957.81 Q157.441 954.245 153.806 954.245 M153.806 950.541 Q159.616 950.541 162.672 955.148 Q165.751 959.731 165.751 968.481 Q165.751 977.208 162.672 981.814 Q159.616 986.397 153.806 986.397 Q147.996 986.397 144.917 981.814 Q141.862 977.208 141.862 968.481 Q141.862 959.731 144.917 955.148 Q147.996 950.541 153.806 950.541 Z" fill="#000000" fill-rule="evenodd" fill-opacity="1" /><path clip-path="url(#clip880)" d="M 0 0 M170.82 979.846 L175.704 979.846 L175.704 985.726 L170.82 985.726 L170.82 979.846 Z" fill="#000000" fill-rule="evenodd" fill-opacity="1" /><path clip-path="url(#clip880)" d="M 0 0 M180.82 951.166 L199.176 951.166 L199.176 955.101 L185.102 955.101 L185.102 963.573 Q186.121 963.226 187.139 963.064 Q188.158 962.879 189.176 962.879 Q194.963 962.879 198.343 966.05 Q201.723 969.222 201.723 974.638 Q201.723 980.217 198.251 983.319 Q194.778 986.397 188.459 986.397 Q186.283 986.397 184.014 986.027 Q181.769 985.657 179.362 984.916 L179.362 980.217 Q181.445 981.351 183.667 981.907 Q185.889 982.462 188.366 982.462 Q192.371 982.462 194.709 980.356 Q197.047 978.249 197.047 974.638 Q197.047 971.027 194.709 968.921 Q192.371 966.814 188.366 966.814 Q186.491 966.814 184.616 967.231 Q182.764 967.647 180.82 968.527 L180.82 951.166 Z" fill="#000000" fill-rule="evenodd" fill-opacity="1" /><path clip-path="url(#clip880)" d="M 0 0 M152.811 759.151 Q149.2 759.151 147.371 762.716 Q145.566 766.258 145.566 773.387 Q145.566 780.494 147.371 784.059 Q149.2 787.6 152.811 787.6 Q156.445 787.6 158.251 784.059 Q160.079 780.494 160.079 773.387 Q160.079 766.258 158.251 762.716 Q156.445 759.151 152.811 759.151 M152.811 755.448 Q158.621 755.448 161.677 760.054 Q164.755 764.637 164.755 773.387 Q164.755 782.114 161.677 786.721 Q158.621 791.304 152.811 791.304 Q147.001 791.304 143.922 786.721 Q140.867 782.114 140.867 773.387 Q140.867 764.637 143.922 760.054 Q147.001 755.448 152.811 755.448 Z" fill="#000000" fill-rule="evenodd" fill-opacity="1" /><path clip-path="url(#clip880)" d="M 0 0 M169.825 784.753 L174.709 784.753 L174.709 790.633 L169.825 790.633 L169.825 784.753 Z" fill="#000000" fill-rule="evenodd" fill-opacity="1" /><path clip-path="url(#clip880)" d="M 0 0 M189.778 759.151 Q186.167 759.151 184.339 762.716 Q182.533 766.258 182.533 773.387 Q182.533 780.494 184.339 784.059 Q186.167 787.6 189.778 787.6 Q193.413 787.6 195.218 784.059 Q197.047 780.494 197.047 773.387 Q197.047 766.258 195.218 762.716 Q193.413 759.151 189.778 759.151 M189.778 755.448 Q195.588 755.448 198.644 760.054 Q201.723 764.637 201.723 773.387 Q201.723 782.114 198.644 786.721 Q195.588 791.304 189.778 791.304 Q183.968 791.304 180.889 786.721 Q177.834 782.114 177.834 773.387 Q177.834 764.637 180.889 760.054 Q183.968 755.448 189.778 755.448 Z" fill="#000000" fill-rule="evenodd" fill-opacity="1" /><path clip-path="url(#clip880)" d="M 0 0 M153.806 564.058 Q150.195 564.058 148.367 567.623 Q146.561 571.164 146.561 578.294 Q146.561 585.401 148.367 588.965 Q150.195 592.507 153.806 592.507 Q157.441 592.507 159.246 588.965 Q161.075 585.401 161.075 578.294 Q161.075 571.164 159.246 567.623 Q157.441 564.058 153.806 564.058 M153.806 560.354 Q159.616 560.354 162.672 564.961 Q165.751 569.544 165.751 578.294 Q165.751 587.021 162.672 591.627 Q159.616 596.211 153.806 596.211 Q147.996 596.211 144.917 591.627 Q141.862 587.021 141.862 578.294 Q141.862 569.544 144.917 564.961 Q147.996 560.354 153.806 560.354 Z" fill="#000000" fill-rule="evenodd" fill-opacity="1" /><path clip-path="url(#clip880)" d="M 0 0 M170.82 589.66 L175.704 589.66 L175.704 595.539 L170.82 595.539 L170.82 589.66 Z" fill="#000000" fill-rule="evenodd" fill-opacity="1" /><path clip-path="url(#clip880)" d="M 0 0 M180.82 560.979 L199.176 560.979 L199.176 564.915 L185.102 564.915 L185.102 573.387 Q186.121 573.039 187.139 572.877 Q188.158 572.692 189.176 572.692 Q194.963 572.692 198.343 575.864 Q201.723 579.035 201.723 584.451 Q201.723 590.03 198.251 593.132 Q194.778 596.211 188.459 596.211 Q186.283 596.211 184.014 595.84 Q181.769 595.47 179.362 594.729 L179.362 590.03 Q181.445 591.164 183.667 591.72 Q185.889 592.275 188.366 592.275 Q192.371 592.275 194.709 590.169 Q197.047 588.063 197.047 584.451 Q197.047 580.84 194.709 578.734 Q192.371 576.627 188.366 576.627 Q186.491 576.627 184.616 577.044 Q182.764 577.461 180.82 578.34 L180.82 560.979 Z" fill="#000000" fill-rule="evenodd" fill-opacity="1" /><path clip-path="url(#clip880)" d="M 0 0 M144.848 396.511 L152.487 396.511 L152.487 370.145 L144.177 371.812 L144.177 367.553 L152.441 365.886 L157.116 365.886 L157.116 396.511 L164.755 396.511 L164.755 400.446 L144.848 400.446 L144.848 396.511 Z" fill="#000000" fill-rule="evenodd" fill-opacity="1" /><path clip-path="url(#clip880)" d="M 0 0 M169.825 394.566 L174.709 394.566 L174.709 400.446 L169.825 400.446 L169.825 394.566 Z" fill="#000000" fill-rule="evenodd" fill-opacity="1" /><path clip-path="url(#clip880)" d="M 0 0 M189.778 368.965 Q186.167 368.965 184.339 372.53 Q182.533 376.071 182.533 383.201 Q182.533 390.307 184.339 393.872 Q186.167 397.414 189.778 397.414 Q193.413 397.414 195.218 393.872 Q197.047 390.307 197.047 383.201 Q197.047 376.071 195.218 372.53 Q193.413 368.965 189.778 368.965 M189.778 365.261 Q195.588 365.261 198.644 369.867 Q201.723 374.451 201.723 383.201 Q201.723 391.928 198.644 396.534 Q195.588 401.117 189.778 401.117 Q183.968 401.117 180.889 396.534 Q177.834 391.928 177.834 383.201 Q177.834 374.451 180.889 369.867 Q183.968 365.261 189.778 365.261 Z" fill="#000000" fill-rule="evenodd" fill-opacity="1" /><path clip-path="url(#clip880)" d="M 0 0 M145.843 201.418 L153.482 201.418 L153.482 175.052 L145.172 176.719 L145.172 172.459 L153.436 170.793 L158.112 170.793 L158.112 201.418 L165.751 201.418 L165.751 205.353 L145.843 205.353 L145.843 201.418 Z" fill="#000000" fill-rule="evenodd" fill-opacity="1" /><path clip-path="url(#clip880)" d="M 0 0 M170.82 199.473 L175.704 199.473 L175.704 205.353 L170.82 205.353 L170.82 199.473 Z" fill="#000000" fill-rule="evenodd" fill-opacity="1" /><path clip-path="url(#clip880)" d="M 0 0 M180.82 170.793 L199.176 170.793 L199.176 174.728 L185.102 174.728 L185.102 183.2 Q186.121 182.853 187.139 182.691 Q188.158 182.506 189.176 182.506 Q194.963 182.506 198.343 185.677 Q201.723 188.848 201.723 194.265 Q201.723 199.843 198.251 202.945 Q194.778 206.024 188.459 206.024 Q186.283 206.024 184.014 205.654 Q181.769 205.283 179.362 204.542 L179.362 199.843 Q181.445 200.978 183.667 201.533 Q185.889 202.089 188.366 202.089 Q192.371 202.089 194.709 199.982 Q197.047 197.876 197.047 194.265 Q197.047 190.654 194.709 188.547 Q192.371 186.441 188.366 186.441 Q186.491 186.441 184.616 186.857 Q182.764 187.274 180.82 188.154 L180.82 170.793 Z" fill="#000000" fill-rule="evenodd" fill-opacity="1" /><path clip-path="url(#clip880)" d="M 0 0 M846.638 14.0809 L846.638 22.0612 Q841.979 19.8332 837.847 18.7395 Q833.715 17.6457 829.867 17.6457 Q823.183 17.6457 819.537 20.2383 Q815.932 22.8309 815.932 27.611 Q815.932 31.6214 818.322 33.6873 Q820.752 35.7128 827.477 36.9686 L832.419 37.9813 Q841.574 39.7232 845.908 44.1387 Q850.283 48.5136 850.283 55.8863 Q850.283 64.6767 844.369 69.2137 Q838.495 73.7508 827.112 73.7508 Q822.818 73.7508 817.957 72.7785 Q813.137 71.8063 807.951 69.9024 L807.951 61.4765 Q812.934 64.2716 817.714 65.6895 Q822.494 67.1073 827.112 67.1073 Q834.12 67.1073 837.928 64.3527 Q841.736 61.598 841.736 56.4939 Q841.736 52.0379 838.981 49.5264 Q836.267 47.0148 830.029 45.759 L825.046 44.7868 Q815.891 42.9639 811.8 39.075 Q807.708 35.1862 807.708 28.2591 Q807.708 20.2383 813.339 15.6203 Q819.01 11.0023 828.935 11.0023 Q833.189 11.0023 837.604 11.7719 Q842.019 12.5416 846.638 14.0809 Z" fill="#000000" fill-rule="evenodd" fill-opacity="1" /><path clip-path="url(#clip880)" d="M 0 0 M858.102 27.2059 L865.555 27.2059 L865.555 72.576 L858.102 72.576 L858.102 27.2059 M858.102 9.54393 L865.555 9.54393 L865.555 18.9825 L858.102 18.9825 L858.102 9.54393 Z" fill="#000000" fill-rule="evenodd" fill-opacity="1" /><path clip-path="url(#clip880)" d="M 0 0 M908.697 35.9153 Q911.492 30.8922 915.381 28.5022 Q919.27 26.1121 924.536 26.1121 Q931.625 26.1121 935.474 31.0947 Q939.322 36.0368 939.322 45.1919 L939.322 72.576 L931.828 72.576 L931.828 45.4349 Q931.828 38.913 929.519 35.7533 Q927.21 32.5936 922.47 32.5936 Q916.678 32.5936 913.315 36.4419 Q909.953 40.2903 909.953 46.9338 L909.953 72.576 L902.459 72.576 L902.459 45.4349 Q902.459 38.8725 900.15 35.7533 Q897.841 32.5936 893.02 32.5936 Q887.309 32.5936 883.946 36.4824 Q880.584 40.3308 880.584 46.9338 L880.584 72.576 L873.09 72.576 L873.09 27.2059 L880.584 27.2059 L880.584 34.2544 Q883.136 30.082 886.701 28.0971 Q890.266 26.1121 895.167 26.1121 Q900.109 26.1121 903.553 28.6237 Q907.036 31.1352 908.697 35.9153 Z" fill="#000000" fill-rule="evenodd" fill-opacity="1" /><path clip-path="url(#clip880)" d="M 0 0 M954.351 65.7705 L954.351 89.8329 L946.857 89.8329 L946.857 27.2059 L954.351 27.2059 L954.351 34.0924 Q956.701 30.0415 960.265 28.0971 Q963.871 26.1121 968.853 26.1121 Q977.117 26.1121 982.262 32.6746 Q987.447 39.2371 987.447 49.9314 Q987.447 60.6258 982.262 67.1883 Q977.117 73.7508 968.853 73.7508 Q963.871 73.7508 960.265 71.8063 Q956.701 69.8214 954.351 65.7705 M979.71 49.9314 Q979.71 41.7081 976.307 37.0496 Q972.945 32.3505 967.03 32.3505 Q961.116 32.3505 957.713 37.0496 Q954.351 41.7081 954.351 49.9314 Q954.351 58.1548 957.713 62.8538 Q961.116 67.5124 967.03 67.5124 Q972.945 67.5124 976.307 62.8538 Q979.71 58.1548 979.71 49.9314 Z" fill="#000000" fill-rule="evenodd" fill-opacity="1" /><path clip-path="url(#clip880)" d="M 0 0 M995.265 9.54393 L1002.72 9.54393 L1002.72 72.576 L995.265 72.576 L995.265 9.54393 Z" fill="#000000" fill-rule="evenodd" fill-opacity="1" /><path clip-path="url(#clip880)" d="M 0 0 M1049.34 48.0275 L1049.34 51.6733 L1015.07 51.6733 Q1015.56 59.3701 1019.69 63.421 Q1023.86 67.4314 1031.28 67.4314 Q1035.57 67.4314 1039.58 66.3781 Q1043.63 65.3249 1047.6 63.2184 L1047.6 70.267 Q1043.59 71.9684 1039.38 72.8596 Q1035.17 73.7508 1030.83 73.7508 Q1019.98 73.7508 1013.62 67.4314 Q1007.3 61.1119 1007.3 50.3365 Q1007.3 39.1965 1013.29 32.6746 Q1019.33 26.1121 1029.54 26.1121 Q1038.69 26.1121 1044 32.0264 Q1049.34 37.9003 1049.34 48.0275 M1041.89 45.84 Q1041.81 39.7232 1038.45 36.0774 Q1035.13 32.4315 1029.62 32.4315 Q1023.38 32.4315 1019.61 35.9558 Q1015.88 39.4801 1015.32 45.8805 L1041.89 45.84 Z" fill="#000000" fill-rule="evenodd" fill-opacity="1" /><path clip-path="url(#clip880)" d="M 0 0 M1092.04 18.8205 L1092.04 41.5461 L1102.33 41.5461 Q1108.04 41.5461 1111.16 38.5889 Q1114.28 35.6318 1114.28 30.163 Q1114.28 24.7348 1111.16 21.7777 Q1108.04 18.8205 1102.33 18.8205 L1092.04 18.8205 M1083.86 12.096 L1102.33 12.096 Q1112.5 12.096 1117.68 16.714 Q1122.91 21.2916 1122.91 30.163 Q1122.91 39.1155 1117.68 43.6931 Q1112.5 48.2706 1102.33 48.2706 L1092.04 48.2706 L1092.04 72.576 L1083.86 72.576 L1083.86 12.096 Z" fill="#000000" fill-rule="evenodd" fill-opacity="1" /><path clip-path="url(#clip880)" d="M 0 0 M1166.58 48.0275 L1166.58 51.6733 L1132.31 51.6733 Q1132.79 59.3701 1136.93 63.421 Q1141.1 67.4314 1148.51 67.4314 Q1152.8 67.4314 1156.82 66.3781 Q1160.87 65.3249 1164.84 63.2184 L1164.84 70.267 Q1160.83 71.9684 1156.61 72.8596 Q1152.4 73.7508 1148.07 73.7508 Q1137.21 73.7508 1130.85 67.4314 Q1124.53 61.1119 1124.53 50.3365 Q1124.53 39.1965 1130.52 32.6746 Q1136.56 26.1121 1146.77 26.1121 Q1155.92 26.1121 1161.23 32.0264 Q1166.58 37.9003 1166.58 48.0275 M1159.12 45.84 Q1159.04 39.7232 1155.68 36.0774 Q1152.36 32.4315 1146.85 32.4315 Q1140.61 32.4315 1136.84 35.9558 Q1133.12 39.4801 1132.55 45.8805 L1159.12 45.84 Z" fill="#000000" fill-rule="evenodd" fill-opacity="1" /><path clip-path="url(#clip880)" d="M 0 0 M1212.11 45.1919 L1212.11 72.576 L1204.66 72.576 L1204.66 45.4349 Q1204.66 38.994 1202.14 35.7938 Q1199.63 32.5936 1194.61 32.5936 Q1188.57 32.5936 1185.09 36.4419 Q1181.61 40.2903 1181.61 46.9338 L1181.61 72.576 L1174.11 72.576 L1174.11 27.2059 L1181.61 27.2059 L1181.61 34.2544 Q1184.28 30.163 1187.89 28.1376 Q1191.53 26.1121 1196.27 26.1121 Q1204.09 26.1121 1208.1 30.9732 Q1212.11 35.7938 1212.11 45.1919 Z" fill="#000000" fill-rule="evenodd" fill-opacity="1" /><path clip-path="url(#clip880)" d="M 0 0 M1249.78 34.0924 L1249.78 9.54393 L1257.24 9.54393 L1257.24 72.576 L1249.78 72.576 L1249.78 65.7705 Q1247.43 69.8214 1243.83 71.8063 Q1240.26 73.7508 1235.24 73.7508 Q1227.02 73.7508 1221.83 67.1883 Q1216.69 60.6258 1216.69 49.9314 Q1216.69 39.2371 1221.83 32.6746 Q1227.02 26.1121 1235.24 26.1121 Q1240.26 26.1121 1243.83 28.0971 Q1247.43 30.0415 1249.78 34.0924 M1224.38 49.9314 Q1224.38 58.1548 1227.75 62.8538 Q1231.15 67.5124 1237.06 67.5124 Q1242.98 67.5124 1246.38 62.8538 Q1249.78 58.1548 1249.78 49.9314 Q1249.78 41.7081 1246.38 37.0496 Q1242.98 32.3505 1237.06 32.3505 Q1231.15 32.3505 1227.75 37.0496 Q1224.38 41.7081 1224.38 49.9314 Z" fill="#000000" fill-rule="evenodd" fill-opacity="1" /><path clip-path="url(#clip880)" d="M 0 0 M1264.29 54.671 L1264.29 27.2059 L1271.74 27.2059 L1271.74 54.3874 Q1271.74 60.8284 1274.25 64.0691 Q1276.76 67.2693 1281.79 67.2693 Q1287.82 67.2693 1291.31 63.421 Q1294.83 59.5726 1294.83 52.9291 L1294.83 27.2059 L1302.28 27.2059 L1302.28 72.576 L1294.83 72.576 L1294.83 65.6084 Q1292.12 69.7404 1288.51 71.7658 Q1284.95 73.7508 1280.21 73.7508 Q1272.39 73.7508 1268.34 68.8897 Q1264.29 64.0286 1264.29 54.671 M1283.04 26.1121 L1283.04 26.1121 Z" fill="#000000" fill-rule="evenodd" fill-opacity="1" /><path clip-path="url(#clip880)" d="M 0 0 M1310.1 9.54393 L1317.56 9.54393 L1317.56 72.576 L1310.1 72.576 L1310.1 9.54393 Z" fill="#000000" fill-rule="evenodd" fill-opacity="1" /><path clip-path="url(#clip880)" d="M 0 0 M1324.6 54.671 L1324.6 27.2059 L1332.06 27.2059 L1332.06 54.3874 Q1332.06 60.8284 1334.57 64.0691 Q1337.08 67.2693 1342.1 67.2693 Q1348.14 67.2693 1351.62 63.421 Q1355.15 59.5726 1355.15 52.9291 L1355.15 27.2059 L1362.6 27.2059 L1362.6 72.576 L1355.15 72.576 L1355.15 65.6084 Q1352.43 69.7404 1348.83 71.7658 Q1345.26 73.7508 1340.52 73.7508 Q1332.71 73.7508 1328.65 68.8897 Q1324.6 64.0286 1324.6 54.671 M1343.36 26.1121 L1343.36 26.1121 Z" fill="#000000" fill-rule="evenodd" fill-opacity="1" /><path clip-path="url(#clip880)" d="M 0 0 M1405.74 35.9153 Q1408.54 30.8922 1412.43 28.5022 Q1416.32 26.1121 1421.58 26.1121 Q1428.67 26.1121 1432.52 31.0947 Q1436.37 36.0368 1436.37 45.1919 L1436.37 72.576 L1428.87 72.576 L1428.87 45.4349 Q1428.87 38.913 1426.56 35.7533 Q1424.26 32.5936 1419.52 32.5936 Q1413.72 32.5936 1410.36 36.4419 Q1407 40.2903 1407 46.9338 L1407 72.576 L1399.5 72.576 L1399.5 45.4349 Q1399.5 38.8725 1397.2 35.7533 Q1394.89 32.5936 1390.07 32.5936 Q1384.35 32.5936 1380.99 36.4824 Q1377.63 40.3308 1377.63 46.9338 L1377.63 72.576 L1370.14 72.576 L1370.14 27.2059 L1377.63 27.2059 L1377.63 34.2544 Q1380.18 30.082 1383.75 28.0971 Q1387.31 26.1121 1392.21 26.1121 Q1397.16 26.1121 1400.6 28.6237 Q1404.08 31.1352 1405.74 35.9153 Z" fill="#000000" fill-rule="evenodd" fill-opacity="1" /><path clip-path="url(#clip880)" d="M 0 0 M1479.06 18.8205 L1479.06 41.5461 L1489.35 41.5461 Q1495.07 41.5461 1498.18 38.5889 Q1501.3 35.6318 1501.3 30.163 Q1501.3 24.7348 1498.18 21.7777 Q1495.07 18.8205 1489.35 18.8205 L1479.06 18.8205 M1470.88 12.096 L1489.35 12.096 Q1499.52 12.096 1504.71 16.714 Q1509.93 21.2916 1509.93 30.163 Q1509.93 39.1155 1504.71 43.6931 Q1499.52 48.2706 1489.35 48.2706 L1479.06 48.2706 L1479.06 72.576 L1470.88 72.576 L1470.88 12.096 Z" fill="#000000" fill-rule="evenodd" fill-opacity="1" /><path clip-path="url(#clip880)" d="M 0 0 M1542.58 34.1734 Q1541.33 33.4443 1539.83 33.1202 Q1538.37 32.7556 1536.59 32.7556 Q1530.27 32.7556 1526.87 36.8875 Q1523.5 40.9789 1523.5 48.6757 L1523.5 72.576 L1516.01 72.576 L1516.01 27.2059 L1523.5 27.2059 L1523.5 34.2544 Q1525.85 30.1225 1529.62 28.1376 Q1533.39 26.1121 1538.78 26.1121 Q1539.54 26.1121 1540.48 26.2337 Q1541.41 26.3147 1542.54 26.5172 L1542.58 34.1734 Z" fill="#000000" fill-rule="evenodd" fill-opacity="1" /><path clip-path="url(#clip880)" d="M 0 0 M1566.16 32.4315 Q1560.16 32.4315 1556.68 37.1306 Q1553.2 41.7891 1553.2 49.9314 Q1553.2 58.0738 1556.64 62.7728 Q1560.12 67.4314 1566.16 67.4314 Q1572.11 67.4314 1575.6 62.7323 Q1579.08 58.0333 1579.08 49.9314 Q1579.08 41.8701 1575.6 37.1711 Q1572.11 32.4315 1566.16 32.4315 M1566.16 26.1121 Q1575.88 26.1121 1581.43 32.4315 Q1586.98 38.7509 1586.98 49.9314 Q1586.98 61.0714 1581.43 67.4314 Q1575.88 73.7508 1566.16 73.7508 Q1556.4 73.7508 1550.85 67.4314 Q1545.34 61.0714 1545.34 49.9314 Q1545.34 38.7509 1550.85 32.4315 Q1556.4 26.1121 1566.16 26.1121 Z" fill="#000000" fill-rule="evenodd" fill-opacity="1" /><path clip-path="url(#clip880)" d="M 0 0 M1627.37 49.9314 Q1627.37 41.7081 1623.97 37.0496 Q1620.6 32.3505 1614.69 32.3505 Q1608.77 32.3505 1605.37 37.0496 Q1602.01 41.7081 1602.01 49.9314 Q1602.01 58.1548 1605.37 62.8538 Q1608.77 67.5124 1614.69 67.5124 Q1620.6 67.5124 1623.97 62.8538 Q1627.37 58.1548 1627.37 49.9314 M1602.01 34.0924 Q1604.36 30.0415 1607.92 28.0971 Q1611.53 26.1121 1616.51 26.1121 Q1624.78 26.1121 1629.92 32.6746 Q1635.11 39.2371 1635.11 49.9314 Q1635.11 60.6258 1629.92 67.1883 Q1624.78 73.7508 1616.51 73.7508 Q1611.53 73.7508 1607.92 71.8063 Q1604.36 69.8214 1602.01 65.7705 L1602.01 72.576 L1594.52 72.576 L1594.52 9.54393 L1602.01 9.54393 L1602.01 34.0924 Z" fill="#000000" fill-rule="evenodd" fill-opacity="1" /><path clip-path="url(#clip880)" d="M 0 0 M1642.92 9.54393 L1650.38 9.54393 L1650.38 72.576 L1642.92 72.576 L1642.92 9.54393 Z" fill="#000000" fill-rule="evenodd" fill-opacity="1" /><path clip-path="url(#clip880)" d="M 0 0 M1697 48.0275 L1697 51.6733 L1662.73 51.6733 Q1663.22 59.3701 1667.35 63.421 Q1671.52 67.4314 1678.94 67.4314 Q1683.23 67.4314 1687.24 66.3781 Q1691.29 65.3249 1695.26 63.2184 L1695.26 70.267 Q1691.25 71.9684 1687.04 72.8596 Q1682.83 73.7508 1678.49 73.7508 Q1667.63 73.7508 1661.27 67.4314 Q1654.95 61.1119 1654.95 50.3365 Q1654.95 39.1965 1660.95 32.6746 Q1666.99 26.1121 1677.19 26.1121 Q1686.35 26.1121 1691.66 32.0264 Q1697 37.9003 1697 48.0275 M1689.55 45.84 Q1689.47 39.7232 1686.11 36.0774 Q1682.78 32.4315 1677.28 32.4315 Q1671.04 32.4315 1667.27 35.9558 Q1663.54 39.4801 1662.98 45.8805 L1689.55 45.84 Z" fill="#000000" fill-rule="evenodd" fill-opacity="1" /><path clip-path="url(#clip880)" d="M 0 0 M1740.15 35.9153 Q1742.94 30.8922 1746.83 28.5022 Q1750.72 26.1121 1755.98 26.1121 Q1763.07 26.1121 1766.92 31.0947 Q1770.77 36.0368 1770.77 45.1919 L1770.77 72.576 L1763.28 72.576 L1763.28 45.4349 Q1763.28 38.913 1760.97 35.7533 Q1758.66 32.5936 1753.92 32.5936 Q1748.13 32.5936 1744.76 36.4419 Q1741.4 40.2903 1741.4 46.9338 L1741.4 72.576 L1733.91 72.576 L1733.91 45.4349 Q1733.91 38.8725 1731.6 35.7533 Q1729.29 32.5936 1724.47 32.5936 Q1718.76 32.5936 1715.39 36.4824 Q1712.03 40.3308 1712.03 46.9338 L1712.03 72.576 L1704.54 72.576 L1704.54 27.2059 L1712.03 27.2059 L1712.03 34.2544 Q1714.58 30.082 1718.15 28.0971 Q1721.71 26.1121 1726.62 26.1121 Q1731.56 26.1121 1735 28.6237 Q1738.48 31.1352 1740.15 35.9153 Z" fill="#000000" fill-rule="evenodd" fill-opacity="1" /><path clip-path="url(#clip880)" d="M 0 0 M1216.85 1508.52 L1257.04 1508.52 L1257.04 1513.93 L1240.18 1513.93 L1240.18 1556.04 L1233.71 1556.04 L1233.71 1513.93 L1216.85 1513.93 L1216.85 1508.52 Z" fill="#000000" fill-rule="evenodd" fill-opacity="1" /><path clip-path="url(#clip880)" d="M 0 0 M1261.18 1520.4 L1267.04 1520.4 L1267.04 1556.04 L1261.18 1556.04 L1261.18 1520.4 M1261.18 1506.52 L1267.04 1506.52 L1267.04 1513.93 L1261.18 1513.93 L1261.18 1506.52 Z" fill="#000000" fill-rule="evenodd" fill-opacity="1" /><path clip-path="url(#clip880)" d="M 0 0 M1300.94 1527.24 Q1303.13 1523.29 1306.19 1521.41 Q1309.24 1519.54 1313.38 1519.54 Q1318.95 1519.54 1321.97 1523.45 Q1325 1527.33 1325 1534.53 L1325 1556.04 L1319.11 1556.04 L1319.11 1534.72 Q1319.11 1529.59 1317.3 1527.11 Q1315.48 1524.63 1311.76 1524.63 Q1307.21 1524.63 1304.56 1527.65 Q1301.92 1530.68 1301.92 1535.9 L1301.92 1556.04 L1296.03 1556.04 L1296.03 1534.72 Q1296.03 1529.56 1294.22 1527.11 Q1292.41 1524.63 1288.62 1524.63 Q1284.13 1524.63 1281.49 1527.68 Q1278.85 1530.71 1278.85 1535.9 L1278.85 1556.04 L1272.96 1556.04 L1272.96 1520.4 L1278.85 1520.4 L1278.85 1525.93 Q1280.85 1522.66 1283.65 1521.1 Q1286.45 1519.54 1290.31 1519.54 Q1294.19 1519.54 1296.89 1521.51 Q1299.63 1523.48 1300.94 1527.24 Z" fill="#000000" fill-rule="evenodd" fill-opacity="1" /><path clip-path="url(#clip880)" d="M 0 0 M1361.63 1536.76 L1361.63 1539.62 L1334.71 1539.62 Q1335.09 1545.67 1338.33 1548.85 Q1341.61 1552 1347.44 1552 Q1350.81 1552 1353.96 1551.17 Q1357.15 1550.35 1360.26 1548.69 L1360.26 1554.23 Q1357.11 1555.57 1353.8 1556.27 Q1350.49 1556.97 1347.09 1556.97 Q1338.56 1556.97 1333.56 1552 Q1328.6 1547.04 1328.6 1538.57 Q1328.6 1529.82 1333.31 1524.69 Q1338.05 1519.54 1346.07 1519.54 Q1353.26 1519.54 1357.43 1524.18 Q1361.63 1528.8 1361.63 1536.76 M1355.78 1535.04 Q1355.71 1530.23 1353.07 1527.37 Q1350.46 1524.5 1346.13 1524.5 Q1341.23 1524.5 1338.27 1527.27 Q1335.34 1530.04 1334.9 1535.07 L1355.78 1535.04 Z" fill="#000000" fill-rule="evenodd" fill-opacity="1" /><path clip-path="url(#clip880)" d="M 0 0 M40.4842 863.369 L40.4842 856.94 L59.9632 856.94 L59.9632 833.577 L40.4842 833.577 L40.4842 827.148 L88.0042 827.148 L88.0042 833.577 L65.3741 833.577 L65.3741 856.94 L88.0042 856.94 L88.0042 863.369 L40.4842 863.369 Z" fill="#000000" fill-rule="evenodd" fill-opacity="1" /><path clip-path="url(#clip880)" d="M 0 0 M68.7161 790.513 L71.5806 790.513 L71.5806 817.44 Q77.6281 817.058 80.8109 813.812 Q83.9619 810.534 83.9619 804.709 Q83.9619 801.335 83.1344 798.184 Q82.3069 795.001 80.6518 791.882 L86.1899 791.882 Q87.5267 795.033 88.227 798.343 Q88.9272 801.653 88.9272 805.059 Q88.9272 813.589 83.9619 818.586 Q78.9967 823.551 70.5303 823.551 Q61.7774 823.551 56.6531 818.841 Q51.4968 814.098 51.4968 806.078 Q51.4968 798.884 56.1438 794.715 Q60.7589 790.513 68.7161 790.513 M66.9973 796.37 Q62.1912 796.433 59.3266 799.075 Q56.4621 801.685 56.4621 806.014 Q56.4621 810.915 59.2312 813.876 Q62.0002 816.804 67.0292 817.249 L66.9973 796.37 Z" fill="#000000" fill-rule="evenodd" fill-opacity="1" /><path clip-path="url(#clip880)" d="M 0 0 M52.3562 784.37 L52.3562 778.514 L88.0042 778.514 L88.0042 784.37 L52.3562 784.37 M38.479 784.37 L38.479 778.514 L45.895 778.514 L45.895 784.37 L38.479 784.37 Z" fill="#000000" fill-rule="evenodd" fill-opacity="1" /><path clip-path="url(#clip880)" d="M 0 0 M69.7664 748.913 Q63.4007 748.913 59.8996 751.555 Q56.3984 754.165 56.3984 758.908 Q56.3984 763.618 59.8996 766.26 Q63.4007 768.87 69.7664 768.87 Q76.1003 768.87 79.6014 766.26 Q83.1026 763.618 83.1026 758.908 Q83.1026 754.165 79.6014 751.555 Q76.1003 748.913 69.7664 748.913 M83.58 743.057 Q92.683 743.057 97.1071 747.099 Q101.563 751.141 101.563 759.481 Q101.563 762.568 101.086 765.305 Q100.64 768.042 99.6852 770.621 L93.9879 770.621 Q95.3884 768.042 96.0568 765.528 Q96.7252 763.014 96.7252 760.404 Q96.7252 754.643 93.7015 751.778 Q90.7096 748.913 84.6303 748.913 L81.7339 748.913 Q84.885 750.728 86.4446 753.56 Q88.0042 756.393 88.0042 760.34 Q88.0042 766.897 83.0071 770.907 Q78.01 774.917 69.7664 774.917 Q61.491 774.917 56.4939 770.907 Q51.4968 766.897 51.4968 760.34 Q51.4968 756.393 53.0564 753.56 Q54.616 750.728 57.7671 748.913 L52.3562 748.913 L52.3562 743.057 L83.58 743.057 Z" fill="#000000" fill-rule="evenodd" fill-opacity="1" /><path clip-path="url(#clip880)" d="M 0 0 M66.4881 707.282 L88.0042 707.282 L88.0042 713.138 L66.679 713.138 Q61.6183 713.138 59.1038 715.112 Q56.5894 717.085 56.5894 721.032 Q56.5894 725.774 59.6131 728.511 Q62.6368 731.249 67.8567 731.249 L88.0042 731.249 L88.0042 737.137 L38.479 737.137 L38.479 731.249 L57.8944 731.249 Q54.6797 729.148 53.0883 726.315 Q51.4968 723.451 51.4968 719.727 Q51.4968 713.584 55.3163 710.433 Q59.1038 707.282 66.4881 707.282 Z" fill="#000000" fill-rule="evenodd" fill-opacity="1" /><path clip-path="url(#clip880)" d="M 0 0 M42.2347 695.346 L52.3562 695.346 L52.3562 683.283 L56.9077 683.283 L56.9077 695.346 L76.2594 695.346 Q80.6199 695.346 81.8613 694.168 Q83.1026 692.959 83.1026 689.299 L83.1026 683.283 L88.0042 683.283 L88.0042 689.299 Q88.0042 696.078 85.4897 698.656 Q82.9434 701.234 76.2594 701.234 L56.9077 701.234 L56.9077 705.531 L52.3562 705.531 L52.3562 701.234 L42.2347 701.234 L42.2347 695.346 Z" fill="#000000" fill-rule="evenodd" fill-opacity="1" /><polyline clip-path="url(#clip882)" style="stroke:#009af9; stroke-width:8; stroke-opacity:1; fill:none" points="
  225.723,773.353 227.852,769.488 229.981,765.624 232.11,761.764 234.239,757.908 236.369,754.058 238.498,750.216 240.627,746.383 242.756,742.56 244.885,738.749 
  247.014,734.952 249.144,731.169 251.273,727.404 253.402,723.656 255.531,719.927 257.66,716.219 259.789,712.533 261.918,708.871 264.048,705.234 266.177,701.623 
  268.306,698.041 270.435,694.487 272.564,690.964 274.693,687.473 276.823,684.015 278.952,680.592 281.081,677.204 283.21,673.854 285.339,670.542 287.468,667.27 
  289.598,664.038 291.727,660.849 293.856,657.703 295.985,654.601 298.114,651.545 300.243,648.536 302.373,645.575 304.502,642.662 306.631,639.8 308.76,636.989 
  310.889,634.23 313.018,631.524 315.148,628.872 317.277,626.275 319.406,623.734 321.535,621.25 323.664,618.824 325.793,616.457 327.923,614.149 330.052,611.902 
  332.181,609.716 334.31,607.592 336.439,605.53 338.568,603.532 340.697,601.599 342.827,599.73 344.956,597.926 347.085,596.189 349.214,594.519 351.343,592.916 
  353.472,591.381 355.602,589.914 357.731,588.517 359.86,587.188 361.989,585.93 364.118,584.742 366.247,583.625 368.377,582.579 370.506,581.604 372.635,580.701 
  374.764,579.87 376.893,579.112 379.022,578.426 381.152,577.813 383.281,577.274 385.41,576.807 387.539,576.415 389.668,576.095 391.797,575.85 393.927,575.678 
  396.056,575.581 398.185,575.557 400.314,575.607 402.443,575.731 404.572,575.929 406.702,576.201 408.831,576.546 410.96,576.965 413.089,577.457 415.218,578.023 
  417.347,578.662 419.476,579.373 421.606,580.157 423.735,581.013 425.864,581.941 427.993,582.941 430.122,584.013 432.251,585.155 434.381,586.368 436.51,587.651 
  438.639,589.004 440.768,590.427 442.897,591.918 445.026,593.477 447.156,595.104 449.285,596.798 451.414,598.559 453.543,600.385 455.672,602.277 457.801,604.234 
  459.931,606.255 462.06,608.339 464.189,610.485 466.318,612.693 468.447,614.962 470.576,617.291 472.706,619.679 474.835,622.125 476.964,624.629 479.093,627.19 
  481.222,629.807 483.351,632.478 485.481,635.203 487.61,637.98 489.739,640.81 491.868,643.69 493.997,646.619 496.126,649.598 498.255,652.623 500.385,655.696 
  502.514,658.813 504.643,661.974 506.772,665.179 508.901,668.425 511.03,671.711 513.16,675.037 515.289,678.401 517.418,681.802 519.547,685.238 521.676,688.708 
  523.805,692.211 525.935,695.745 528.064,699.309 530.193,702.903 532.322,706.523 534.451,710.169 536.58,713.84 538.71,717.534 540.839,721.25 542.968,724.985 
  545.097,728.74 547.226,732.512 549.355,736.3 551.485,740.103 553.614,743.918 555.743,747.744 557.872,751.581 560.001,755.426 562.13,759.278 564.26,763.135 
  566.389,766.996 568.518,770.86 570.647,774.725 572.776,778.589 574.905,782.451 577.035,786.31 579.164,790.164 581.293,794.011 583.422,797.851 585.551,801.681 
  587.68,805.5 589.809,809.306 591.939,813.099 594.068,816.876 596.197,820.637 598.326,824.378 600.455,828.1 602.584,831.801 604.714,835.478 606.843,839.132 
  608.972,842.76 611.101,846.361 613.23,849.934 615.359,853.477 617.489,856.989 619.618,860.468 621.747,863.914 623.876,867.325 626.005,870.699 628.134,874.036 
  630.264,877.334 632.393,880.592 634.522,883.809 636.651,886.982 638.78,890.113 640.909,893.198 643.039,896.237 645.168,899.23 647.297,902.174 649.426,905.068 
  651.555,907.912 653.684,910.705 655.814,913.446 657.943,916.133 660.072,918.765 662.201,921.342 664.33,923.863 666.459,926.326 668.588,928.731 670.718,931.078 
  672.847,933.364 674.976,935.59 677.105,937.755 679.234,939.858 681.363,941.897 683.493,943.873 685.622,945.785 687.751,947.631 689.88,949.412 692.009,951.126 
  694.138,952.773 696.268,954.353 698.397,955.864 700.526,957.307 702.655,958.68 704.784,959.984 706.913,961.217 709.043,962.38 711.172,963.472 713.301,964.492 
  715.43,965.441 717.559,966.318 719.688,967.122 721.818,967.854 723.947,968.512 726.076,969.098 728.205,969.611 730.334,970.05 732.463,970.415 734.593,970.707 
  736.722,970.926 738.851,971.07 740.98,971.141 743.109,971.138 745.238,971.061 747.367,970.91 749.497,970.686 751.626,970.388 753.755,970.017 755.884,969.572 
  758.013,969.054 760.142,968.463 762.272,967.799 764.401,967.063 766.53,966.253 768.659,965.372 770.788,964.418 772.917,963.393 775.047,962.297 777.176,961.129 
  779.305,959.892 781.434,958.584 783.563,957.206 785.692,955.759 787.822,954.244 789.951,952.66 792.08,951.008 794.209,949.29 796.338,947.505 798.467,945.655 
  800.597,943.739 802.726,941.759 804.855,939.715 806.984,937.608 809.113,935.439 811.242,933.209 813.372,930.917 815.501,928.567 817.63,926.157 819.759,923.689 
  821.888,921.164 824.017,918.583 826.146,915.947 828.276,913.257 830.405,910.513 832.534,907.716 834.663,904.868 836.792,901.97 838.921,899.023 841.051,896.028 
  843.18,892.986 845.309,889.898 847.438,886.765 849.567,883.588 851.696,880.369 853.826,877.109 855.955,873.809 858.084,870.47 860.213,867.094 862.342,863.681 
  864.471,860.234 866.601,856.752 868.73,853.238 870.859,849.694 872.988,846.119 875.117,842.516 877.246,838.886 879.376,835.23 881.505,831.551 883.634,827.848 
  885.763,824.124 887.892,820.38 890.021,816.618 892.151,812.839 894.28,809.044 896.409,805.236 898.538,801.415 900.667,797.584 902.796,793.743 904.926,789.895 
  907.055,786.04 909.184,782.181 911.313,778.318 913.442,774.453 915.571,770.587 917.7,766.723 919.83,762.861 921.959,759.004 924.088,755.152 926.217,751.307 
  928.346,747.471 930.475,743.645 932.605,739.831 934.734,736.03 936.863,732.244 938.992,728.474 941.121,724.721 943.25,720.987 945.38,717.274 947.509,713.582 
  949.638,709.914 951.767,706.27 953.896,702.652 956.025,699.061 958.155,695.499 960.284,691.968 962.413,688.467 964.542,684.999 966.671,681.565 968.8,678.167 
  970.93,674.805 973.059,671.481 975.188,668.196 977.317,664.952 979.446,661.749 981.575,658.59 983.705,655.474 985.834,652.404 987.963,649.381 990.092,646.406 
  992.221,643.479 994.35,640.602 996.479,637.776 998.609,635.001 1000.74,632.279 1002.87,629.611 1005,626.998 1007.13,624.44 1009.25,621.939 1011.38,619.496 
  1013.51,617.111 1015.64,614.786 1017.77,612.521 1019.9,610.317 1022.03,608.175 1024.16,606.095 1026.29,604.079 1028.42,602.127 1030.55,600.24 1032.68,598.418 
  1034.8,596.662 1036.93,594.973 1039.06,593.351 1041.19,591.798 1043.32,590.312 1045.45,588.896 1047.58,587.548 1049.71,586.271 1051.84,585.064 1053.97,583.927 
  1056.1,582.862 1058.23,581.868 1060.35,580.946 1062.48,580.095 1064.61,579.317 1066.74,578.612 1068.87,577.979 1071,577.419 1073.13,576.933 1075.26,576.519 
  1077.39,576.179 1079.52,575.912 1081.65,575.718 1083.78,575.599 1085.9,575.552 1088.03,575.58 1090.16,575.682 1092.29,575.857 1094.42,576.106 1096.55,576.429 
  1098.68,576.826 1100.81,577.296 1102.94,577.84 1105.07,578.456 1107.2,579.146 1109.33,579.909 1111.45,580.744 1113.58,581.652 1115.71,582.632 1117.84,583.683 
  1119.97,584.806 1122.1,585.999 1124.23,587.264 1126.36,588.598 1128.49,590.002 1130.62,591.475 1132.75,593.016 1134.88,594.626 1137,596.303 1139.13,598.047 
  1141.26,599.857 1143.39,601.732 1145.52,603.673 1147.65,605.677 1149.78,607.745 1151.91,609.876 1154.04,612.068 1156.17,614.321 1158.3,616.635 1160.42,619.007 
  1162.55,621.438 1164.68,623.926 1166.81,626.471 1168.94,629.073 1171.07,631.729 1173.2,634.439 1175.33,637.202 1177.46,640.017 1179.59,642.882 1181.72,645.798 
  1183.85,648.763 1185.97,651.775 1188.1,654.834 1190.23,657.938 1192.36,661.087 1194.49,664.279 1196.62,667.513 1198.75,670.787 1200.88,674.102 1203.01,677.455 
  1205.14,680.844 1207.27,684.27 1209.4,687.73 1211.52,691.224 1213.65,694.749 1215.78,698.306 1217.91,701.891 1220.04,705.504 1222.17,709.144 1224.3,712.809 
  1226.43,716.498 1228.56,720.209 1230.69,723.941 1232.82,727.692 1234.95,731.461 1237.07,735.246 1239.2,739.046 1241.33,742.859 1243.46,746.684 1245.59,750.519 
  1247.72,754.362 1249.85,758.213 1251.98,762.07 1254.11,765.931 1256.24,769.795 1258.37,773.661 1260.5,777.526 1262.62,781.39 1264.75,785.25 1266.88,789.106 
  1269.01,792.955 1271.14,796.797 1273.27,800.629 1275.4,804.451 1277.53,808.26 1279.66,812.056 1281.79,815.836 1283.92,819.6 1286.05,823.346 1288.17,827.072 
  1290.3,830.778 1292.43,834.461 1294.56,838.12 1296.69,841.755 1298.82,845.363 1300.95,848.943 1303.08,852.494 1305.21,856.014 1307.34,859.503 1309.47,862.959 
  1311.6,866.38 1313.72,869.765 1315.85,873.114 1317.98,876.424 1320.11,879.694 1322.24,882.924 1324.37,886.112 1326.5,889.256 1328.63,892.356 1330.76,895.41 
  1332.89,898.417 1335.02,901.376 1337.15,904.285 1339.27,907.144 1341.4,909.952 1343.53,912.707 1345.66,915.409 1347.79,918.057 1349.92,920.65 1352.05,923.187 
  1354.18,925.667 1356.31,928.09 1358.44,930.453 1360.57,932.757 1362.7,935.001 1364.82,937.183 1366.95,939.303 1369.08,941.36 1371.21,943.354 1373.34,945.283 
  1375.47,947.147 1377.6,948.945 1379.73,950.677 1381.86,952.342 1383.99,953.939 1386.12,955.469 1388.25,956.929 1390.37,958.321 1392.5,959.643 1394.63,960.895 
  1396.76,962.076 1398.89,963.186 1401.02,964.226 1403.15,965.193 1405.28,966.089 1407.41,966.912 1409.54,967.663 1411.67,968.341 1413.8,968.947 1415.92,969.479 
  1418.05,969.938 1420.18,970.323 1422.31,970.635 1424.44,970.874 1426.57,971.039 1428.7,971.13 1430.83,971.148 1432.96,971.092 1435.09,970.963 1437.22,970.76 
  1439.35,970.483 1441.47,970.133 1443.6,969.71 1445.73,969.213 1447.86,968.643 1449.99,968 1452.12,967.285 1454.25,966.496 1456.38,965.635 1458.51,964.702 
  1460.64,963.698 1462.77,962.621 1464.9,961.474 1467.02,960.256 1469.15,958.967 1471.28,957.609 1473.41,956.181 1475.54,954.684 1477.67,953.118 1479.8,951.485 
  1481.93,949.784 1484.06,948.017 1486.19,946.183 1488.32,944.285 1490.45,942.321 1492.57,940.293 1494.7,938.202 1496.83,936.048 1498.96,933.833 1501.09,931.557 
  1503.22,929.22 1505.35,926.825 1507.48,924.371 1509.61,921.86 1511.74,919.292 1513.87,916.669 1516,913.992 1518.12,911.261 1520.25,908.478 1522.38,905.643 
  1524.51,902.758 1526.64,899.824 1528.77,896.841 1530.9,893.811 1533.03,890.735 1535.16,887.613 1537.29,884.448 1539.42,881.24 1541.55,877.991 1543.67,874.702 
  1545.8,871.373 1547.93,868.007 1550.06,864.604 1552.19,861.166 1554.32,857.694 1556.45,854.19 1558.58,850.654 1560.71,847.088 1562.84,843.494 1564.97,839.872 
  1567.09,836.224 1569.22,832.551 1571.35,828.856 1573.48,825.138 1575.61,821.401 1577.74,817.644 1579.87,813.87 1582,810.08 1584.13,806.275 1586.26,802.457 
  1588.39,798.627 1590.52,794.788 1592.64,790.94 1594.77,787.085 1596.9,783.224 1599.03,779.36 1601.16,775.493 1603.29,771.626 1605.42,767.76 1607.55,763.896 
  1609.68,760.036 1611.81,756.182 1613.94,752.335 1616.07,748.496 1618.19,744.667 1620.32,740.848 1622.45,737.042 1624.58,733.251 1626.71,729.475 1628.84,725.716 
  1630.97,721.975 1633.1,718.255 1635.23,714.557 1637.36,710.881 1639.49,707.23 1641.62,703.605 1643.74,700.006 1645.87,696.437 1648,692.897 1650.13,689.388 
  1652.26,685.912 1654.39,682.47 1656.52,679.063 1658.65,675.693 1660.78,672.36 1662.91,669.066 1665.04,665.812 1667.17,662.599 1669.29,659.429 1671.42,656.303 
  1673.55,653.221 1675.68,650.186 1677.81,647.197 1679.94,644.257 1682.07,641.366 1684.2,638.526 1686.33,635.737 1688.46,633.001 1690.59,630.318 1692.72,627.689 
  1694.84,625.117 1696.97,622.601 1699.1,620.142 1701.23,617.742 1703.36,615.401 1705.49,613.12 1707.62,610.9 1709.75,608.741 1711.88,606.644 1714.01,604.61 
  1716.14,602.639 1718.27,600.733 1720.39,598.892 1722.52,597.117 1724.65,595.408 1726.78,593.766 1728.91,592.191 1731.04,590.685 1733.17,589.248 1735.3,587.88 
  1737.43,586.582 1739.56,585.355 1741.69,584.198 1743.82,583.112 1745.94,582.097 1748.07,581.155 1750.2,580.285 1752.33,579.487 1754.46,578.762 1756.59,578.11 
  1758.72,577.531 1760.85,577.026 1762.98,576.594 1765.11,576.236 1767.24,575.952 1769.37,575.742 1771.49,575.606 1773.62,575.543 1775.75,575.555 1777.88,575.64 
  1780.01,575.8 1782.14,576.033 1784.27,576.34 1786.4,576.72 1788.53,577.174 1790.66,577.701 1792.79,578.301 1794.92,578.973 1797.04,579.718 1799.17,580.535 
  1801.3,581.424 1803.43,582.384 1805.56,583.416 1807.69,584.519 1809.82,585.693 1811.95,586.937 1814.08,588.25 1816.21,589.634 1818.34,591.086 1820.47,592.607 
  1822.59,594.196 1824.72,595.853 1826.85,597.576 1828.98,599.366 1831.11,601.222 1833.24,603.143 1835.37,605.128 1837.5,607.177 1839.63,609.289 1841.76,611.463 
  1843.89,613.699 1846.02,615.996 1848.14,618.352 1850.27,620.768 1852.4,623.242 1854.53,625.773 1856.66,628.36 1858.79,631.003 1860.92,633.701 1863.05,636.452 
  1865.18,639.255 1867.31,642.11 1869.44,645.015 1871.57,647.969 1873.69,650.971 1875.82,654.02 1877.95,657.115 1880.08,660.255 1882.21,663.437 1884.34,666.662 
  1886.47,669.927 1888.6,673.232 1890.73,676.576 1892.86,679.956 1894.99,683.374 1897.12,686.825 1899.24,690.31 1901.37,693.827 1903.5,697.375 1905.63,700.952 
  1907.76,704.557 1909.89,708.189 1912.02,711.846 1914.15,715.526 1916.28,719.229 1918.41,722.953 1920.54,726.696 1922.67,730.457 1924.79,734.236 1926.92,738.029 
  1929.05,741.836 1931.18,745.656 1933.31,749.487 1935.44,753.327 1937.57,757.175 1939.7,761.029 1941.83,764.889 1943.96,768.753 1946.09,772.618 1948.22,776.484 
  1950.34,780.349 1952.47,784.212 1954.6,788.071 1956.73,791.925 1958.86,795.771 1960.99,799.609 1963.12,803.437 1965.25,807.253 1967.38,811.057 1969.51,814.845 
  1971.64,818.618 1973.77,822.372 1975.89,826.107 1978.02,829.821 1980.15,833.513 1982.28,837.18 1984.41,840.822 1986.54,844.439 1988.67,848.027 1990.8,851.587 
  1992.93,855.117 1995.06,858.615 1997.19,862.08 1999.31,865.511 2001.44,868.906 2003.57,872.264 2005.7,875.584 2007.83,878.865 2009.96,882.104 2012.09,885.302 
  2014.22,888.456 2016.35,891.566 2018.48,894.631 2020.61,897.649 2022.74,900.619 2024.86,903.54 2026.99,906.411 2029.12,909.232 2031.25,912 2033.38,914.716 
  2035.51,917.377 2037.64,919.984 2039.77,922.535 2041.9,925.029 2044.03,927.465 2046.16,929.843 2048.29,932.161 2050.41,934.419 2052.54,936.616 2054.67,938.752 
  2056.8,940.824 2058.93,942.834 2061.06,944.779 2063.19,946.66 2065.32,948.475 2067.45,950.224 2069.58,951.906 2071.71,953.522 2073.84,955.07 2075.96,956.55 
  2078.09,957.961 2080.22,959.304 2082.35,960.577 2084.48,961.779 2086.61,962.912 2088.74,963.973 2090.87,964.963 2093,965.882 2095.13,966.728 2097.26,967.501 
  2099.39,968.202 2101.51,968.83 2103.64,969.385 2105.77,969.866 2107.9,970.273 2110.03,970.607 2112.16,970.866 2114.29,971.052 2116.42,971.163 2118.55,971.2 
  2120.68,971.163 2122.81,971.051 2124.94,970.866 2127.06,970.606 2129.19,970.273 2131.32,969.865 2133.45,969.384 2135.58,968.829 2137.71,968.201 2139.84,967.5 
  2141.97,966.726 2144.1,965.88 2146.23,964.961 2148.36,963.971 2150.49,962.909 2152.61,961.776 2154.74,960.573 2156.87,959.299 2159,957.956 2161.13,956.544 
  2163.26,955.063 2165.39,953.514 2167.52,951.898 2169.65,950.215 2171.78,948.466 2173.91,946.651 2176.04,944.77 2178.16,942.825 2180.29,940.816 2182.42,938.743 
  2184.55,936.608 2186.68,934.411 2188.81,932.154 2190.94,929.835 2193.07,927.458 2195.2,925.022 2197.33,922.528 2199.46,919.977 2201.59,917.371 2203.71,914.709 
  2205.84,911.994 2207.97,909.225 2210.1,906.404 2212.23,903.533 2214.36,900.611 2216.49,897.64 2218.62,894.622 2220.75,891.557 2222.88,888.446 2225.01,885.291 
  2227.14,882.093 2229.26,878.852 2231.39,875.571 2233.52,872.251 2235.65,868.892 2237.78,865.496 2239.91,862.065 2242.04,858.599 2244.17,855.1 2246.3,851.57 
  2248.43,848.01 2250.56,844.421 2252.69,840.805 2254.81,837.163 2256.94,833.496 2259.07,829.805 2261.2,826.092 2263.33,822.36 2265.46,818.608 2267.59,814.838 
  2269.72,811.053 2271.85,807.253 2273.98,803.44 2276.11,799.616 2278.24,795.782 2280.36,791.939 2282.49,788.089 2284.62,784.233 2286.75,780.373 2288.88,776.51 
  2291.01,772.647 2293.14,768.783 2295.27,764.921 2297.4,761.063 2299.53,757.209 2301.66,753.361 2303.79,749.521 2305.91,745.69 2308.04,741.869 2310.17,738.06 
  2312.3,734.265 2314.43,730.484 2316.56,726.72 2318.69,722.974 2320.82,719.247 2322.95,715.541 2325.08,711.856 2327.21,708.196 2329.34,704.56 2331.46,700.951 
  2333.59,697.37 2335.72,693.818 2337.85,690.297 2339.98,686.808 2342.11,683.352 2344.24,679.932 2346.37,676.549 2348.5,673.203 2350.63,669.897 2352.76,666.632 
  
  "/>
<polyline clip-path="url(#clip882)" style="stroke:#e26f46; stroke-width:8; stroke-opacity:1; fill:none" points="
  225.723,160.449 227.852,160.568 229.981,160.927 232.11,161.525 234.239,162.361 236.369,163.435 238.498,164.747 240.627,166.296 242.756,168.081 244.885,170.101 
  247.014,172.356 249.144,174.845 251.273,177.565 253.402,180.516 255.531,183.697 257.66,187.106 259.789,190.74 261.918,194.6 264.048,198.682 266.177,202.985 
  268.306,207.506 270.435,212.244 272.564,217.197 274.693,222.362 276.823,227.737 278.952,233.318 281.081,239.105 283.21,245.094 285.339,251.282 287.468,257.667 
  289.598,264.246 291.727,271.016 293.856,277.973 295.985,285.115 298.114,292.439 300.243,299.942 302.373,307.619 304.502,315.469 306.631,323.488 308.76,331.672 
  310.889,340.017 313.018,348.522 315.148,357.181 317.277,365.992 319.406,374.95 321.535,384.052 323.664,393.295 325.793,402.675 327.923,412.188 330.052,421.83 
  332.181,431.598 334.31,441.488 336.439,451.495 338.568,461.617 340.697,471.848 342.827,482.186 344.956,492.627 347.085,503.166 349.214,513.8 351.343,524.525 
  353.472,535.337 355.602,546.232 357.731,557.206 359.86,568.255 361.989,579.375 364.118,590.562 366.247,601.812 368.377,613.122 370.506,624.486 372.635,635.902 
  374.764,647.365 376.893,658.871 379.022,670.417 381.152,681.997 383.281,693.609 385.41,705.249 387.539,716.911 389.668,728.593 391.797,740.29 393.927,751.998 
  396.056,763.714 398.185,775.433 400.314,787.151 402.443,798.864 404.572,810.569 406.702,822.261 408.831,833.936 410.96,845.591 413.089,857.221 415.218,868.822 
  417.347,880.391 419.476,891.923 421.606,903.414 423.735,914.861 425.864,926.259 427.993,937.605 430.122,948.894 432.251,960.122 434.381,971.286 436.51,982.381 
  438.639,993.404 440.768,1004.35 442.897,1015.22 445.026,1026 447.156,1036.69 449.285,1047.29 451.414,1057.8 453.543,1068.2 455.672,1078.5 457.801,1088.69 
  459.931,1098.78 462.06,1108.74 464.189,1118.59 466.318,1128.31 468.447,1137.91 470.576,1147.37 472.706,1156.71 474.835,1165.9 476.964,1174.95 479.093,1183.86 
  481.222,1192.62 483.351,1201.23 485.481,1209.68 487.61,1217.97 489.739,1226.09 491.868,1234.05 493.997,1241.84 496.126,1249.46 498.255,1256.9 500.385,1264.16 
  502.514,1271.23 504.643,1278.12 506.772,1284.83 508.901,1291.33 511.03,1297.65 513.16,1303.76 515.289,1309.68 517.418,1315.39 519.547,1320.9 521.676,1326.2 
  523.805,1331.29 525.935,1336.17 528.064,1340.83 530.193,1345.27 532.322,1349.5 534.451,1353.5 536.58,1357.28 538.71,1360.84 540.839,1364.17 542.968,1367.27 
  545.097,1370.14 547.226,1372.78 549.355,1375.19 551.485,1377.36 553.614,1379.3 555.743,1381 557.872,1382.47 560.001,1383.7 562.13,1384.69 564.26,1385.44 
  566.389,1385.95 568.518,1386.23 570.647,1386.26 572.776,1386.06 574.905,1385.61 577.035,1384.93 579.164,1384.01 581.293,1382.85 583.422,1381.45 585.551,1379.82 
  587.68,1377.95 589.809,1375.84 591.939,1373.5 594.068,1370.93 596.197,1368.12 598.326,1365.09 600.455,1361.82 602.584,1358.33 604.714,1354.62 606.843,1350.68 
  608.972,1346.52 611.101,1342.14 613.23,1337.54 615.359,1332.72 617.489,1327.7 619.618,1322.46 621.747,1317.01 623.876,1311.35 626.005,1305.49 628.134,1299.44 
  630.264,1293.18 632.393,1286.73 634.522,1280.08 636.651,1273.24 638.78,1266.22 640.909,1259.01 643.039,1251.63 645.168,1244.06 647.297,1236.32 649.426,1228.41 
  651.555,1220.33 653.684,1212.09 655.814,1203.68 657.943,1195.12 660.072,1186.41 662.201,1177.54 664.33,1168.53 666.459,1159.38 668.588,1150.08 670.718,1140.66 
  672.847,1131.1 674.976,1121.41 677.105,1111.6 679.234,1101.67 681.363,1091.62 683.493,1081.45 685.622,1071.18 687.751,1060.81 689.88,1050.33 692.009,1039.76 
  694.138,1029.09 696.268,1018.33 698.397,1007.49 700.526,996.569 702.655,985.568 704.784,974.493 706.913,963.349 709.043,952.139 711.172,940.867 713.301,929.537 
  715.43,918.153 717.559,906.72 719.688,895.24 721.818,883.719 723.947,872.16 726.076,860.566 728.205,848.943 730.334,837.294 732.463,825.623 734.593,813.934 
  736.722,802.231 738.851,790.519 740.98,778.801 743.109,767.081 745.238,755.363 747.367,743.652 749.497,731.952 751.626,720.265 753.755,708.595 755.884,696.948 
  758.013,685.327 760.142,673.736 762.272,662.179 764.401,650.66 766.53,639.184 768.659,627.753 770.788,616.373 772.917,605.047 775.047,593.779 777.176,582.574 
  779.305,571.434 781.434,560.365 783.563,549.369 785.692,538.452 787.822,527.617 789.951,516.867 792.08,506.207 794.209,495.641 796.338,485.172 798.467,474.804 
  800.597,464.542 802.726,454.389 804.855,444.348 806.984,434.425 809.113,424.622 811.242,414.943 813.372,405.392 815.501,395.974 817.63,386.691 819.759,377.547 
  821.888,368.547 824.017,359.694 826.146,350.99 828.276,342.438 830.405,334.042 832.534,325.807 834.663,317.735 836.792,309.831 838.921,302.099 841.051,294.54 
  843.18,287.16 845.309,279.962 847.438,272.947 849.567,266.121 851.696,259.485 853.826,253.043 855.955,246.798 858.084,240.752 860.213,234.907 862.342,229.268 
  864.471,223.836 866.601,218.613 868.73,213.602 870.859,208.805 872.988,204.224 875.117,199.862 877.246,195.72 879.376,191.799 881.505,188.103 883.634,184.633 
  885.763,181.389 887.892,178.374 890.021,175.589 892.151,173.036 894.28,170.715 896.409,168.628 898.538,166.776 900.667,165.16 902.796,163.781 904.926,162.638 
  907.055,161.734 909.184,161.068 911.313,160.641 913.442,160.452 915.571,160.501 917.7,160.79 919.83,161.317 921.959,162.082 924.088,163.085 926.217,164.325 
  928.346,165.803 930.475,167.517 932.605,169.467 934.734,171.651 936.863,174.069 938.992,176.719 941.121,179.601 943.25,182.714 945.38,186.054 947.509,189.623 
  949.638,193.416 951.767,197.434 953.896,201.674 956.025,206.134 958.155,210.812 960.284,215.705 962.413,220.813 964.542,226.132 966.671,231.659 968.8,237.393 
  970.93,243.33 973.059,249.468 975.188,255.804 977.317,262.335 979.446,269.057 981.575,275.968 983.705,283.064 985.834,290.341 987.963,297.797 990.092,305.427 
  992.221,313.229 994.35,321.201 996.479,329.339 998.609,337.641 1000.74,346.102 1002.87,354.718 1005,363.487 1007.13,372.405 1009.25,381.467 1011.38,390.671 
  1013.51,400.012 1015.64,409.488 1017.77,419.093 1019.9,428.826 1022.03,438.68 1024.16,448.654 1026.29,458.743 1028.42,468.944 1030.55,479.252 1032.68,489.664 
  1034.8,500.176 1036.93,510.784 1039.06,521.484 1041.19,532.272 1043.32,543.145 1045.45,554.098 1047.58,565.128 1049.71,576.23 1051.84,587.4 1053.97,598.635 
  1056.1,609.931 1058.23,621.283 1060.35,632.687 1062.48,644.139 1064.61,655.636 1066.74,667.173 1068.87,678.746 1071,690.35 1073.13,701.983 1075.26,713.639 
  1077.39,725.316 1079.52,737.01 1081.65,748.717 1083.78,760.432 1085.9,772.151 1088.03,783.871 1090.16,795.588 1092.29,807.296 1094.42,818.994 1096.55,830.675 
  1098.68,842.337 1100.81,853.975 1102.94,865.585 1105.07,877.164 1107.2,888.707 1109.33,900.211 1111.45,911.67 1113.58,923.083 1115.71,934.443 1117.84,945.748 
  1119.97,956.994 1122.1,968.176 1124.23,979.29 1126.36,990.334 1128.49,1001.3 1130.62,1012.19 1132.75,1023 1134.88,1033.71 1137,1044.34 1139.13,1054.88 
  1141.26,1065.31 1143.39,1075.64 1145.52,1085.87 1147.65,1095.98 1149.78,1105.98 1151.91,1115.86 1154.04,1125.62 1156.17,1135.25 1158.3,1144.76 1160.42,1154.13 
  1162.55,1163.36 1164.68,1172.45 1166.81,1181.4 1168.94,1190.21 1171.07,1198.86 1173.2,1207.36 1175.33,1215.7 1177.46,1223.87 1179.59,1231.88 1181.72,1239.73 
  1183.85,1247.4 1185.97,1254.89 1188.1,1262.2 1190.23,1269.34 1192.36,1276.28 1194.49,1283.04 1196.62,1289.6 1198.75,1295.97 1200.88,1302.14 1203.01,1308.12 
  1205.14,1313.89 1207.27,1319.45 1209.4,1324.8 1211.52,1329.95 1213.65,1334.88 1215.78,1339.6 1217.91,1344.1 1220.04,1348.38 1222.17,1352.44 1224.3,1356.28 
  1226.43,1359.9 1228.56,1363.29 1230.69,1366.45 1232.82,1369.38 1234.95,1372.08 1237.07,1374.55 1239.2,1376.79 1241.33,1378.79 1243.46,1380.55 1245.59,1382.08 
  1247.72,1383.38 1249.85,1384.43 1251.98,1385.25 1254.11,1385.83 1256.24,1386.17 1258.37,1386.28 1260.5,1386.14 1262.62,1385.77 1264.75,1385.15 1266.88,1384.3 
  1269.01,1383.22 1271.14,1381.89 1273.27,1380.33 1275.4,1378.53 1277.53,1376.5 1279.66,1374.23 1281.79,1371.73 1283.92,1369 1286.05,1366.03 1288.17,1362.84 
  1290.3,1359.42 1292.43,1355.77 1294.56,1351.89 1296.69,1347.8 1298.82,1343.48 1300.95,1338.94 1303.08,1334.18 1305.21,1329.21 1307.34,1324.03 1309.47,1318.63 
  1311.6,1313.03 1313.72,1307.22 1315.85,1301.21 1317.98,1295 1320.11,1288.59 1322.24,1281.98 1324.37,1275.19 1326.5,1268.2 1328.63,1261.04 1330.76,1253.69 
  1332.89,1246.16 1335.02,1238.46 1337.15,1230.59 1339.27,1222.55 1341.4,1214.35 1343.53,1206 1345.66,1197.48 1347.79,1188.8 1349.92,1179.98 1352.05,1171.01 
  1354.18,1161.89 1356.31,1152.64 1358.44,1143.25 1360.57,1133.72 1362.7,1124.07 1364.82,1114.29 1366.95,1104.39 1369.08,1094.37 1371.21,1084.24 1373.34,1074 
  1375.47,1063.65 1377.6,1053.21 1379.73,1042.66 1381.86,1032.02 1383.99,1021.28 1386.12,1010.46 1388.25,999.562 1390.37,988.581 1392.5,977.525 1394.63,966.398 
  1396.76,955.204 1398.89,943.947 1401.02,932.631 1403.15,921.259 1405.28,909.837 1407.41,898.367 1409.54,886.855 1411.67,875.303 1413.8,863.717 1415.92,852.099 
  1418.05,840.455 1420.18,828.788 1422.31,817.103 1424.44,805.403 1426.57,793.693 1428.7,781.977 1430.83,770.257 1432.96,758.538 1435.09,746.824 1437.22,735.118 
  1439.35,723.425 1441.47,711.749 1443.6,700.094 1445.73,688.464 1447.86,676.864 1449.99,665.296 1452.12,653.766 1454.25,642.277 1456.38,630.833 1458.51,619.438 
  1460.64,608.097 1462.77,596.812 1464.9,585.589 1467.02,574.432 1469.15,563.343 1471.28,552.327 1473.41,541.388 1475.54,530.53 1477.67,519.757 1479.8,509.072 
  1481.93,498.48 1484.06,487.984 1486.19,477.589 1488.32,467.298 1490.45,457.114 1492.57,447.043 1494.7,437.087 1496.83,427.25 1498.96,417.536 1501.09,407.95 
  1503.22,398.494 1505.35,389.173 1507.48,379.99 1509.61,370.949 1511.74,362.053 1513.87,353.307 1516,344.715 1518.12,336.279 1520.25,328.003 1522.38,319.892 
  1524.51,311.946 1526.64,304.167 1528.77,296.561 1530.9,289.131 1533.03,281.879 1535.16,274.81 1537.29,267.928 1539.42,261.234 1541.55,254.734 1543.67,248.429 
  1545.8,242.322 1547.93,236.417 1550.06,230.716 1552.19,225.222 1554.32,219.937 1556.45,214.864 1558.58,210.005 1560.71,205.362 1562.84,200.938 1564.97,196.734 
  1567.09,192.753 1569.22,188.996 1571.35,185.465 1573.48,182.161 1575.61,179.086 1577.74,176.242 1579.87,173.629 1582,171.249 1584.13,169.103 1586.26,167.192 
  1588.39,165.516 1590.52,164.077 1592.64,162.875 1594.77,161.91 1596.9,161.184 1599.03,160.696 1601.16,160.446 1603.29,160.435 1605.42,160.663 1607.55,161.13 
  1609.68,161.834 1611.81,162.777 1613.94,163.958 1616.07,165.376 1618.19,167.031 1620.32,168.922 1622.45,171.047 1624.58,173.405 1626.71,175.996 1628.84,178.818 
  1630.97,181.869 1633.1,185.149 1635.23,188.656 1637.36,192.387 1639.49,196.342 1641.62,200.518 1643.74,204.915 1645.87,209.529 1648,214.358 1650.13,219.402 
  1652.26,224.657 1654.39,230.12 1656.52,235.791 1658.65,241.666 1660.78,247.742 1662.91,254.018 1665.04,260.49 1667.17,267.156 1669.29,274.012 1671.42,281.056 
  1673.55,288.284 1675.68,295.694 1677.81,303.282 1679.94,311.045 1682.07,318.98 1684.2,327.083 1686.33,335.35 1688.46,343.778 1690.59,352.363 1692.72,361.101 
  1694.84,369.988 1696.97,379.021 1699.1,388.195 1701.23,397.506 1703.36,406.95 1705.49,416.523 1707.62,426.223 1709.75,436.047 1711.88,445.991 1714.01,456.051 
  1716.14,466.224 1718.27,476.506 1720.39,486.892 1722.52,497.378 1724.65,507.962 1726.78,518.639 1728.91,529.404 1731.04,540.255 1733.17,551.187 1735.3,562.196 
  1737.43,573.278 1739.56,584.429 1741.69,595.646 1743.82,606.925 1745.94,618.261 1748.07,629.65 1750.2,641.089 1752.33,652.574 1754.46,664.1 1756.59,675.664 
  1758.72,687.262 1760.85,698.889 1762.98,710.541 1765.11,722.216 1767.24,733.908 1769.37,745.613 1771.49,757.328 1773.62,769.049 1775.75,780.771 1777.88,792.491 
  1780.01,804.204 1782.14,815.906 1784.27,827.594 1786.4,839.263 1788.53,850.909 1790.66,862.529 1792.79,874.117 1794.92,885.67 1797.04,897.185 1799.17,908.657 
  1801.3,920.084 1803.43,931.462 1805.56,942.785 1807.69,954.051 1809.82,965.254 1811.95,976.391 1814.08,987.457 1816.21,998.449 1818.34,1009.36 1820.47,1020.19 
  1822.59,1030.94 1824.72,1041.59 1826.85,1052.15 1828.98,1062.61 1831.11,1072.97 1833.24,1083.22 1835.37,1093.36 1837.5,1103.39 1839.63,1113.3 1841.76,1123.09 
  1843.89,1132.75 1846.02,1142.29 1848.14,1151.69 1850.27,1160.96 1852.4,1170.08 1854.53,1179.07 1856.66,1187.9 1858.79,1196.59 1860.92,1205.12 1863.05,1213.5 
  1865.18,1221.71 1867.31,1229.76 1869.44,1237.65 1871.57,1245.36 1873.69,1252.89 1875.82,1260.25 1877.95,1267.43 1880.08,1274.43 1882.21,1281.23 1884.34,1287.85 
  1886.47,1294.27 1888.6,1300.5 1890.73,1306.53 1892.86,1312.36 1894.99,1317.98 1897.12,1323.4 1899.24,1328.62 1901.37,1333.62 1903.5,1338.41 1905.63,1342.98 
  1907.76,1347.33 1909.89,1351.47 1912.02,1355.38 1914.15,1359.06 1916.28,1362.52 1918.41,1365.75 1920.54,1368.75 1922.67,1371.52 1924.79,1374.06 1926.92,1376.36 
  1929.05,1378.42 1931.18,1380.25 1933.31,1381.85 1935.44,1383.2 1937.57,1384.32 1939.7,1385.2 1941.83,1385.84 1943.96,1386.24 1946.09,1386.4 1948.22,1386.32 
  1950.34,1386 1952.47,1385.44 1954.6,1384.64 1956.73,1383.6 1958.86,1382.32 1960.99,1380.81 1963.12,1379.06 1965.25,1377.08 1967.38,1374.86 1969.51,1372.41 
  1971.64,1369.72 1973.77,1366.81 1975.89,1363.66 1978.02,1360.29 1980.15,1356.69 1982.28,1352.87 1984.41,1348.83 1986.54,1344.57 1988.67,1340.08 1990.8,1335.38 
  1992.93,1330.47 1995.06,1325.34 1997.19,1320 1999.31,1314.46 2001.44,1308.71 2003.57,1302.76 2005.7,1296.6 2007.83,1290.26 2009.96,1283.71 2012.09,1276.98 
  2014.22,1270.06 2016.35,1262.95 2018.48,1255.66 2020.61,1248.19 2022.74,1240.55 2024.86,1232.73 2026.99,1224.75 2029.12,1216.59 2031.25,1208.28 2033.38,1199.8 
  2035.51,1191.17 2037.64,1182.38 2039.77,1173.45 2041.9,1164.37 2044.03,1155.14 2046.16,1145.78 2048.29,1136.29 2050.41,1126.66 2052.54,1116.91 2054.67,1107.04 
  2056.8,1097.04 2058.93,1086.93 2061.06,1076.71 2063.19,1066.39 2065.32,1055.96 2067.45,1045.43 2069.58,1034.81 2071.71,1024.1 2073.84,1013.3 2075.96,1002.42 
  2078.09,991.462 2080.22,980.425 2082.35,969.317 2084.48,958.14 2086.61,946.9 2088.74,935.6 2090.87,924.244 2093,912.835 2095.13,901.379 2097.26,889.879 
  2099.39,878.339 2101.51,866.763 2103.64,855.154 2105.77,843.518 2107.9,831.858 2110.03,820.177 2112.16,808.48 2114.29,796.771 2116.42,785.054 2118.55,773.333 
  2120.68,761.612 2122.81,749.895 2124.94,738.185 2127.06,726.487 2129.19,714.806 2131.32,703.144 2133.45,691.505 2135.58,679.895 2137.71,668.317 2139.84,656.775 
  2141.97,645.272 2144.1,633.813 2146.23,622.403 2148.36,611.044 2150.49,599.741 2152.61,588.499 2154.74,577.32 2156.87,566.21 2159,555.171 2161.13,544.209 
  2163.26,533.326 2165.39,522.528 2167.52,511.819 2169.65,501.2 2171.78,490.676 2173.91,480.25 2176.04,469.926 2178.16,459.709 2180.29,449.603 2182.42,439.612 
  2184.55,429.739 2186.68,419.99 2188.81,410.367 2190.94,400.874 2193.07,391.516 2195.2,382.297 2197.33,373.219 2199.46,364.286 2201.59,355.503 2203.71,346.872 
  2205.84,338.398 2207.97,330.082 2210.1,321.93 2212.23,313.945 2214.36,306.128 2216.49,298.485 2218.62,291.018 2220.75,283.729 2222.88,276.623 2225.01,269.702 
  2227.14,262.969 2229.26,256.427 2231.39,250.079 2233.52,243.928 2235.65,237.977 2237.78,232.227 2239.91,226.683 2242.04,221.346 2244.17,216.219 2246.3,211.304 
  2248.43,206.604 2250.56,202.122 2252.69,197.859 2254.81,193.817 2256.94,189.995 2259.07,186.397 2261.2,183.024 2263.33,179.878 2265.46,176.961 2267.59,174.274 
  2269.72,171.819 2271.85,169.597 2273.98,167.61 2276.11,165.858 2278.24,164.343 2280.36,163.065 2282.49,162.025 2284.62,161.224 2286.75,160.661 2288.88,160.339 
  2291.01,160.256 2293.14,160.414 2295.27,160.811 2297.4,161.448 2299.53,162.324 2301.66,163.44 2303.79,164.794 2305.91,166.387 2308.04,168.216 2310.17,170.282 
  2312.3,172.584 2314.43,175.12 2316.56,177.889 2318.69,180.89 2320.82,184.121 2322.95,187.581 2325.08,191.268 2327.21,195.18 2329.34,199.315 2331.46,203.671 
  2333.59,208.246 2335.72,213.037 2337.85,218.043 2339.98,223.259 2342.11,228.685 2344.24,234.316 2346.37,240.151 2348.5,246.185 2350.63,252.416 2352.76,258.84 
  
  "/>
</svg>
