<?xml version="1.0" encoding="utf-8"?>
<svg xmlns="http://www.w3.org/2000/svg" xmlns:xlink="http://www.w3.org/1999/xlink" width="600" height="400" viewBox="0 0 2400 1600">
<defs>
  <clipPath id="clip840">
    <rect x="0" y="0" width="2400" height="1600"/>
  </clipPath>
</defs>
<path clip-path="url(#clip840)" d="
M0 1600 L2400 1600 L2400 0 L0 0  Z
  " fill="#ffffff" fill-rule="evenodd" fill-opacity="1"/>
<defs>
  <clipPath id="clip841">
    <rect x="480" y="0" width="1681" height="1600"/>
  </clipPath>
</defs>
<path clip-path="url(#clip840)" d="
M227.204 1423.18 L2352.76 1423.18 L2352.76 123.472 L227.204 123.472  Z
  " fill="#ffffff" fill-rule="evenodd" fill-opacity="1"/>
<defs>
  <clipPath id="clip842">
    <rect x="227" y="123" width="2127" height="1301"/>
  </clipPath>
</defs>
<polyline clip-path="url(#clip842)" style="stroke:#000000; stroke-width:2; stroke-opacity:0.1; fill:none" points="
  455.966,1423.18 455.966,123.472 
  "/>
<polyline clip-path="url(#clip842)" style="stroke:#000000; stroke-width:2; stroke-opacity:0.1; fill:none" points="
  877.824,1423.18 877.824,123.472 
  "/>
<polyline clip-path="url(#clip842)" style="stroke:#000000; stroke-width:2; stroke-opacity:0.1; fill:none" points="
  1299.68,1423.18 1299.68,123.472 
  "/>
<polyline clip-path="url(#clip842)" style="stroke:#000000; stroke-width:2; stroke-opacity:0.1; fill:none" points="
  1721.54,1423.18 1721.54,123.472 
  "/>
<polyline clip-path="url(#clip842)" style="stroke:#000000; stroke-width:2; stroke-opacity:0.1; fill:none" points="
  2143.4,1423.18 2143.4,123.472 
  "/>
<polyline clip-path="url(#clip842)" style="stroke:#000000; stroke-width:2; stroke-opacity:0.1; fill:none" points="
  227.204,1381.32 2352.76,1381.32 
  "/>
<polyline clip-path="url(#clip842)" style="stroke:#000000; stroke-width:2; stroke-opacity:0.1; fill:none" points="
  227.204,1104.58 2352.76,1104.58 
  "/>
<polyline clip-path="url(#clip842)" style="stroke:#000000; stroke-width:2; stroke-opacity:0.1; fill:none" points="
  227.204,827.851 2352.76,827.851 
  "/>
<polyline clip-path="url(#clip842)" style="stroke:#000000; stroke-width:2; stroke-opacity:0.1; fill:none" points="
  227.204,551.118 2352.76,551.118 
  "/>
<polyline clip-path="url(#clip842)" style="stroke:#000000; stroke-width:2; stroke-opacity:0.1; fill:none" points="
  227.204,274.386 2352.76,274.386 
  "/>
<polyline clip-path="url(#clip840)" style="stroke:#000000; stroke-width:4; stroke-opacity:1; fill:none" points="
  227.204,1423.18 2352.76,1423.18 
  "/>
<polyline clip-path="url(#clip840)" style="stroke:#000000; stroke-width:4; stroke-opacity:1; fill:none" points="
  227.204,1423.18 227.204,123.472 
  "/>
<polyline clip-path="url(#clip840)" style="stroke:#000000; stroke-width:4; stroke-opacity:1; fill:none" points="
  455.966,1423.18 455.966,1407.58 
  "/>
<polyline clip-path="url(#clip840)" style="stroke:#000000; stroke-width:4; stroke-opacity:1; fill:none" points="
  877.824,1423.18 877.824,1407.58 
  "/>
<polyline clip-path="url(#clip840)" style="stroke:#000000; stroke-width:4; stroke-opacity:1; fill:none" points="
  1299.68,1423.18 1299.68,1407.58 
  "/>
<polyline clip-path="url(#clip840)" style="stroke:#000000; stroke-width:4; stroke-opacity:1; fill:none" points="
  1721.54,1423.18 1721.54,1407.58 
  "/>
<polyline clip-path="url(#clip840)" style="stroke:#000000; stroke-width:4; stroke-opacity:1; fill:none" points="
  2143.4,1423.18 2143.4,1407.58 
  "/>
<polyline clip-path="url(#clip840)" style="stroke:#000000; stroke-width:4; stroke-opacity:1; fill:none" points="
  227.204,1381.32 252.711,1381.32 
  "/>
<polyline clip-path="url(#clip840)" style="stroke:#000000; stroke-width:4; stroke-opacity:1; fill:none" points="
  227.204,1104.58 252.711,1104.58 
  "/>
<polyline clip-path="url(#clip840)" style="stroke:#000000; stroke-width:4; stroke-opacity:1; fill:none" points="
  227.204,827.851 252.711,827.851 
  "/>
<polyline clip-path="url(#clip840)" style="stroke:#000000; stroke-width:4; stroke-opacity:1; fill:none" points="
  227.204,551.118 252.711,551.118 
  "/>
<polyline clip-path="url(#clip840)" style="stroke:#000000; stroke-width:4; stroke-opacity:1; fill:none" points="
  227.204,274.386 252.711,274.386 
  "/>
<path clip-path="url(#clip840)" d="M 0 0 M417.494 1461.77 L429.97 1461.77 L429.97 1465.56 L417.494 1465.56 L417.494 1461.77 Z" fill="#000000" fill-rule="evenodd" fill-opacity="1" /><path clip-path="url(#clip840)" d="M 0 0 M445.04 1445.17 Q441.429 1445.17 439.6 1448.74 Q437.794 1452.28 437.794 1459.41 Q437.794 1466.51 439.6 1470.08 Q441.429 1473.62 445.04 1473.62 Q448.674 1473.62 450.479 1470.08 Q452.308 1466.51 452.308 1459.41 Q452.308 1452.28 450.479 1448.74 Q448.674 1445.17 445.04 1445.17 M445.04 1441.47 Q450.85 1441.47 453.905 1446.07 Q456.984 1450.66 456.984 1459.41 Q456.984 1468.13 453.905 1472.74 Q450.85 1477.32 445.04 1477.32 Q439.23 1477.32 436.151 1472.74 Q433.095 1468.13 433.095 1459.41 Q433.095 1450.66 436.151 1446.07 Q439.23 1441.47 445.04 1441.47 Z" fill="#000000" fill-rule="evenodd" fill-opacity="1" /><path clip-path="url(#clip840)" d="M 0 0 M462.053 1470.77 L466.938 1470.77 L466.938 1476.65 L462.053 1476.65 L462.053 1470.77 Z" fill="#000000" fill-rule="evenodd" fill-opacity="1" /><path clip-path="url(#clip840)" d="M 0 0 M484.854 1446.17 L473.049 1464.61 L484.854 1464.61 L484.854 1446.17 M483.627 1442.09 L489.507 1442.09 L489.507 1464.61 L494.438 1464.61 L494.438 1468.5 L489.507 1468.5 L489.507 1476.65 L484.854 1476.65 L484.854 1468.5 L469.253 1468.5 L469.253 1463.99 L483.627 1442.09 Z" fill="#000000" fill-rule="evenodd" fill-opacity="1" /><path clip-path="url(#clip840)" d="M 0 0 M840.394 1461.77 L852.871 1461.77 L852.871 1465.56 L840.394 1465.56 L840.394 1461.77 Z" fill="#000000" fill-rule="evenodd" fill-opacity="1" /><path clip-path="url(#clip840)" d="M 0 0 M867.94 1445.17 Q864.329 1445.17 862.5 1448.74 Q860.695 1452.28 860.695 1459.41 Q860.695 1466.51 862.5 1470.08 Q864.329 1473.62 867.94 1473.62 Q871.574 1473.62 873.38 1470.08 Q875.209 1466.51 875.209 1459.41 Q875.209 1452.28 873.38 1448.74 Q871.574 1445.17 867.94 1445.17 M867.94 1441.47 Q873.75 1441.47 876.806 1446.07 Q879.885 1450.66 879.885 1459.41 Q879.885 1468.13 876.806 1472.74 Q873.75 1477.32 867.94 1477.32 Q862.13 1477.32 859.051 1472.74 Q855.996 1468.13 855.996 1459.41 Q855.996 1450.66 859.051 1446.07 Q862.13 1441.47 867.94 1441.47 Z" fill="#000000" fill-rule="evenodd" fill-opacity="1" /><path clip-path="url(#clip840)" d="M 0 0 M884.954 1470.77 L889.838 1470.77 L889.838 1476.65 L884.954 1476.65 L884.954 1470.77 Z" fill="#000000" fill-rule="evenodd" fill-opacity="1" /><path clip-path="url(#clip840)" d="M 0 0 M898.935 1472.72 L915.255 1472.72 L915.255 1476.65 L893.31 1476.65 L893.31 1472.72 Q895.972 1469.96 900.556 1465.33 Q905.162 1460.68 906.343 1459.34 Q908.588 1456.81 909.468 1455.08 Q910.37 1453.32 910.37 1451.63 Q910.37 1448.87 908.426 1447.14 Q906.505 1445.4 903.403 1445.4 Q901.204 1445.4 898.75 1446.17 Q896.32 1446.93 893.542 1448.48 L893.542 1443.76 Q896.366 1442.62 898.82 1442.05 Q901.273 1441.47 903.31 1441.47 Q908.681 1441.47 911.875 1444.15 Q915.07 1446.84 915.07 1451.33 Q915.07 1453.46 914.259 1455.38 Q913.472 1457.28 911.366 1459.87 Q910.787 1460.54 907.685 1463.76 Q904.583 1466.95 898.935 1472.72 Z" fill="#000000" fill-rule="evenodd" fill-opacity="1" /><path clip-path="url(#clip840)" d="M 0 0 M1281.2 1445.17 Q1277.59 1445.17 1275.76 1448.74 Q1273.95 1452.28 1273.95 1459.41 Q1273.95 1466.51 1275.76 1470.08 Q1277.59 1473.62 1281.2 1473.62 Q1284.83 1473.62 1286.64 1470.08 Q1288.47 1466.51 1288.47 1459.41 Q1288.47 1452.28 1286.64 1448.74 Q1284.83 1445.17 1281.2 1445.17 M1281.2 1441.47 Q1287.01 1441.47 1290.07 1446.07 Q1293.14 1450.66 1293.14 1459.41 Q1293.14 1468.13 1290.07 1472.74 Q1287.01 1477.32 1281.2 1477.32 Q1275.39 1477.32 1272.31 1472.74 Q1269.26 1468.13 1269.26 1459.41 Q1269.26 1450.66 1272.31 1446.07 Q1275.39 1441.47 1281.2 1441.47 Z" fill="#000000" fill-rule="evenodd" fill-opacity="1" /><path clip-path="url(#clip840)" d="M 0 0 M1298.21 1470.77 L1303.1 1470.77 L1303.1 1476.65 L1298.21 1476.65 L1298.21 1470.77 Z" fill="#000000" fill-rule="evenodd" fill-opacity="1" /><path clip-path="url(#clip840)" d="M 0 0 M1318.17 1445.17 Q1314.56 1445.17 1312.73 1448.74 Q1310.92 1452.28 1310.92 1459.41 Q1310.92 1466.51 1312.73 1470.08 Q1314.56 1473.62 1318.17 1473.62 Q1321.8 1473.62 1323.61 1470.08 Q1325.44 1466.51 1325.44 1459.41 Q1325.44 1452.28 1323.61 1448.74 Q1321.8 1445.17 1318.17 1445.17 M1318.17 1441.47 Q1323.98 1441.47 1327.03 1446.07 Q1330.11 1450.66 1330.11 1459.41 Q1330.11 1468.13 1327.03 1472.74 Q1323.98 1477.32 1318.17 1477.32 Q1312.36 1477.32 1309.28 1472.74 Q1306.22 1468.13 1306.22 1459.41 Q1306.22 1450.66 1309.28 1446.07 Q1312.36 1441.47 1318.17 1441.47 Z" fill="#000000" fill-rule="evenodd" fill-opacity="1" /><path clip-path="url(#clip840)" d="M 0 0 M1703.86 1445.17 Q1700.25 1445.17 1698.42 1448.74 Q1696.61 1452.28 1696.61 1459.41 Q1696.61 1466.51 1698.42 1470.08 Q1700.25 1473.62 1703.86 1473.62 Q1707.49 1473.62 1709.3 1470.08 Q1711.13 1466.51 1711.13 1459.41 Q1711.13 1452.28 1709.3 1448.74 Q1707.49 1445.17 1703.86 1445.17 M1703.86 1441.47 Q1709.67 1441.47 1712.72 1446.07 Q1715.8 1450.66 1715.8 1459.41 Q1715.8 1468.13 1712.72 1472.74 Q1709.67 1477.32 1703.86 1477.32 Q1698.05 1477.32 1694.97 1472.74 Q1691.91 1468.13 1691.91 1459.41 Q1691.91 1450.66 1694.97 1446.07 Q1698.05 1441.47 1703.86 1441.47 Z" fill="#000000" fill-rule="evenodd" fill-opacity="1" /><path clip-path="url(#clip840)" d="M 0 0 M1720.87 1470.77 L1725.75 1470.77 L1725.75 1476.65 L1720.87 1476.65 L1720.87 1470.77 Z" fill="#000000" fill-rule="evenodd" fill-opacity="1" /><path clip-path="url(#clip840)" d="M 0 0 M1734.85 1472.72 L1751.17 1472.72 L1751.17 1476.65 L1729.23 1476.65 L1729.23 1472.72 Q1731.89 1469.96 1736.47 1465.33 Q1741.08 1460.68 1742.26 1459.34 Q1744.5 1456.81 1745.38 1455.08 Q1746.29 1453.32 1746.29 1451.63 Q1746.29 1448.87 1744.34 1447.14 Q1742.42 1445.4 1739.32 1445.4 Q1737.12 1445.4 1734.67 1446.17 Q1732.24 1446.93 1729.46 1448.48 L1729.46 1443.76 Q1732.28 1442.62 1734.74 1442.05 Q1737.19 1441.47 1739.23 1441.47 Q1744.6 1441.47 1747.79 1444.15 Q1750.99 1446.84 1750.99 1451.33 Q1750.99 1453.46 1750.18 1455.38 Q1749.39 1457.28 1747.28 1459.87 Q1746.7 1460.54 1743.6 1463.76 Q1740.5 1466.95 1734.85 1472.72 Z" fill="#000000" fill-rule="evenodd" fill-opacity="1" /><path clip-path="url(#clip840)" d="M 0 0 M2124.67 1445.17 Q2121.06 1445.17 2119.23 1448.74 Q2117.43 1452.28 2117.43 1459.41 Q2117.43 1466.51 2119.23 1470.08 Q2121.06 1473.62 2124.67 1473.62 Q2128.31 1473.62 2130.11 1470.08 Q2131.94 1466.51 2131.94 1459.41 Q2131.94 1452.28 2130.11 1448.74 Q2128.31 1445.17 2124.67 1445.17 M2124.67 1441.47 Q2130.48 1441.47 2133.54 1446.07 Q2136.62 1450.66 2136.62 1459.41 Q2136.62 1468.13 2133.54 1472.74 Q2130.48 1477.32 2124.67 1477.32 Q2118.86 1477.32 2115.79 1472.74 Q2112.73 1468.13 2112.73 1459.41 Q2112.73 1450.66 2115.79 1446.07 Q2118.86 1441.47 2124.67 1441.47 Z" fill="#000000" fill-rule="evenodd" fill-opacity="1" /><path clip-path="url(#clip840)" d="M 0 0 M2141.69 1470.77 L2146.57 1470.77 L2146.57 1476.65 L2141.69 1476.65 L2141.69 1470.77 Z" fill="#000000" fill-rule="evenodd" fill-opacity="1" /><path clip-path="url(#clip840)" d="M 0 0 M2164.49 1446.17 L2152.68 1464.61 L2164.49 1464.61 L2164.49 1446.17 M2163.26 1442.09 L2169.14 1442.09 L2169.14 1464.61 L2174.07 1464.61 L2174.07 1468.5 L2169.14 1468.5 L2169.14 1476.65 L2164.49 1476.65 L2164.49 1468.5 L2148.89 1468.5 L2148.89 1463.99 L2163.26 1442.09 Z" fill="#000000" fill-rule="evenodd" fill-opacity="1" /><path clip-path="url(#clip840)" d="M 0 0 M126.26 1383.71 L138.737 1383.71 L138.737 1387.51 L126.26 1387.51 L126.26 1383.71 Z" fill="#000000" fill-rule="evenodd" fill-opacity="1" /><path clip-path="url(#clip840)" d="M 0 0 M153.806 1367.11 Q150.195 1367.11 148.367 1370.68 Q146.561 1374.22 146.561 1381.35 Q146.561 1388.46 148.367 1392.02 Q150.195 1395.56 153.806 1395.56 Q157.441 1395.56 159.246 1392.02 Q161.075 1388.46 161.075 1381.35 Q161.075 1374.22 159.246 1370.68 Q157.441 1367.11 153.806 1367.11 M153.806 1363.41 Q159.616 1363.41 162.672 1368.02 Q165.751 1372.6 165.751 1381.35 Q165.751 1390.08 162.672 1394.68 Q159.616 1399.27 153.806 1399.27 Q147.996 1399.27 144.917 1394.68 Q141.862 1390.08 141.862 1381.35 Q141.862 1372.6 144.917 1368.02 Q147.996 1363.41 153.806 1363.41 Z" fill="#000000" fill-rule="evenodd" fill-opacity="1" /><path clip-path="url(#clip840)" d="M 0 0 M170.82 1392.72 L175.704 1392.72 L175.704 1398.6 L170.82 1398.6 L170.82 1392.72 Z" fill="#000000" fill-rule="evenodd" fill-opacity="1" /><path clip-path="url(#clip840)" d="M 0 0 M193.621 1368.11 L181.815 1386.56 L193.621 1386.56 L193.621 1368.11 M192.394 1364.04 L198.274 1364.04 L198.274 1386.56 L203.204 1386.56 L203.204 1390.45 L198.274 1390.45 L198.274 1398.6 L193.621 1398.6 L193.621 1390.45 L178.019 1390.45 L178.019 1385.93 L192.394 1364.04 Z" fill="#000000" fill-rule="evenodd" fill-opacity="1" /><path clip-path="url(#clip840)" d="M 0 0 M128.343 1106.98 L140.82 1106.98 L140.82 1110.78 L128.343 1110.78 L128.343 1106.98 Z" fill="#000000" fill-rule="evenodd" fill-opacity="1" /><path clip-path="url(#clip840)" d="M 0 0 M155.89 1090.38 Q152.279 1090.38 150.45 1093.95 Q148.644 1097.49 148.644 1104.62 Q148.644 1111.72 150.45 1115.29 Q152.279 1118.83 155.89 1118.83 Q159.524 1118.83 161.329 1115.29 Q163.158 1111.72 163.158 1104.62 Q163.158 1097.49 161.329 1093.95 Q159.524 1090.38 155.89 1090.38 M155.89 1086.68 Q161.7 1086.68 164.755 1091.28 Q167.834 1095.87 167.834 1104.62 Q167.834 1113.34 164.755 1117.95 Q161.7 1122.53 155.89 1122.53 Q150.079 1122.53 147.001 1117.95 Q143.945 1113.34 143.945 1104.62 Q143.945 1095.87 147.001 1091.28 Q150.079 1086.68 155.89 1086.68 Z" fill="#000000" fill-rule="evenodd" fill-opacity="1" /><path clip-path="url(#clip840)" d="M 0 0 M172.903 1115.98 L177.788 1115.98 L177.788 1121.86 L172.903 1121.86 L172.903 1115.98 Z" fill="#000000" fill-rule="evenodd" fill-opacity="1" /><path clip-path="url(#clip840)" d="M 0 0 M186.885 1117.93 L203.204 1117.93 L203.204 1121.86 L181.26 1121.86 L181.26 1117.93 Q183.922 1115.17 188.505 1110.54 Q193.112 1105.89 194.292 1104.55 Q196.538 1102.03 197.417 1100.29 Q198.32 1098.53 198.32 1096.84 Q198.32 1094.09 196.376 1092.35 Q194.454 1090.61 191.352 1090.61 Q189.153 1090.61 186.7 1091.38 Q184.269 1092.14 181.491 1093.69 L181.491 1088.97 Q184.315 1087.84 186.769 1087.26 Q189.223 1086.68 191.26 1086.68 Q196.63 1086.68 199.825 1089.36 Q203.019 1092.05 203.019 1096.54 Q203.019 1098.67 202.209 1100.59 Q201.422 1102.49 199.315 1105.08 Q198.737 1105.75 195.635 1108.97 Q192.533 1112.16 186.885 1117.93 Z" fill="#000000" fill-rule="evenodd" fill-opacity="1" /><path clip-path="url(#clip840)" d="M 0 0 M154.292 813.649 Q150.681 813.649 148.853 817.214 Q147.047 820.756 147.047 827.885 Q147.047 834.992 148.853 838.557 Q150.681 842.098 154.292 842.098 Q157.927 842.098 159.732 838.557 Q161.561 834.992 161.561 827.885 Q161.561 820.756 159.732 817.214 Q157.927 813.649 154.292 813.649 M154.292 809.946 Q160.103 809.946 163.158 814.552 Q166.237 819.135 166.237 827.885 Q166.237 836.612 163.158 841.219 Q160.103 845.802 154.292 845.802 Q148.482 845.802 145.404 841.219 Q142.348 836.612 142.348 827.885 Q142.348 819.135 145.404 814.552 Q148.482 809.946 154.292 809.946 Z" fill="#000000" fill-rule="evenodd" fill-opacity="1" /><path clip-path="url(#clip840)" d="M 0 0 M171.306 839.251 L176.19 839.251 L176.19 845.131 L171.306 845.131 L171.306 839.251 Z" fill="#000000" fill-rule="evenodd" fill-opacity="1" /><path clip-path="url(#clip840)" d="M 0 0 M191.26 813.649 Q187.649 813.649 185.82 817.214 Q184.014 820.756 184.014 827.885 Q184.014 834.992 185.82 838.557 Q187.649 842.098 191.26 842.098 Q194.894 842.098 196.7 838.557 Q198.528 834.992 198.528 827.885 Q198.528 820.756 196.7 817.214 Q194.894 813.649 191.26 813.649 M191.26 809.946 Q197.07 809.946 200.126 814.552 Q203.204 819.135 203.204 827.885 Q203.204 836.612 200.126 841.219 Q197.07 845.802 191.26 845.802 Q185.45 845.802 182.371 841.219 Q179.315 836.612 179.315 827.885 Q179.315 819.135 182.371 814.552 Q185.45 809.946 191.26 809.946 Z" fill="#000000" fill-rule="evenodd" fill-opacity="1" /><path clip-path="url(#clip840)" d="M 0 0 M155.89 536.917 Q152.279 536.917 150.45 540.482 Q148.644 544.023 148.644 551.153 Q148.644 558.259 150.45 561.824 Q152.279 565.366 155.89 565.366 Q159.524 565.366 161.329 561.824 Q163.158 558.259 163.158 551.153 Q163.158 544.023 161.329 540.482 Q159.524 536.917 155.89 536.917 M155.89 533.213 Q161.7 533.213 164.755 537.82 Q167.834 542.403 167.834 551.153 Q167.834 559.88 164.755 564.486 Q161.7 569.069 155.89 569.069 Q150.079 569.069 147.001 564.486 Q143.945 559.88 143.945 551.153 Q143.945 542.403 147.001 537.82 Q150.079 533.213 155.89 533.213 Z" fill="#000000" fill-rule="evenodd" fill-opacity="1" /><path clip-path="url(#clip840)" d="M 0 0 M172.903 562.519 L177.788 562.519 L177.788 568.398 L172.903 568.398 L172.903 562.519 Z" fill="#000000" fill-rule="evenodd" fill-opacity="1" /><path clip-path="url(#clip840)" d="M 0 0 M186.885 564.463 L203.204 564.463 L203.204 568.398 L181.26 568.398 L181.26 564.463 Q183.922 561.708 188.505 557.079 Q193.112 552.426 194.292 551.083 Q196.538 548.56 197.417 546.824 Q198.32 545.065 198.32 543.375 Q198.32 540.621 196.376 538.884 Q194.454 537.148 191.352 537.148 Q189.153 537.148 186.7 537.912 Q184.269 538.676 181.491 540.227 L181.491 535.505 Q184.315 534.371 186.769 533.792 Q189.223 533.213 191.26 533.213 Q196.63 533.213 199.825 535.898 Q203.019 538.584 203.019 543.074 Q203.019 545.204 202.209 547.125 Q201.422 549.023 199.315 551.616 Q198.737 552.287 195.635 555.505 Q192.533 558.699 186.885 564.463 Z" fill="#000000" fill-rule="evenodd" fill-opacity="1" /><path clip-path="url(#clip840)" d="M 0 0 M153.806 260.184 Q150.195 260.184 148.367 263.749 Q146.561 267.291 146.561 274.421 Q146.561 281.527 148.367 285.092 Q150.195 288.633 153.806 288.633 Q157.441 288.633 159.246 285.092 Q161.075 281.527 161.075 274.421 Q161.075 267.291 159.246 263.749 Q157.441 260.184 153.806 260.184 M153.806 256.481 Q159.616 256.481 162.672 261.087 Q165.751 265.671 165.751 274.421 Q165.751 283.147 162.672 287.754 Q159.616 292.337 153.806 292.337 Q147.996 292.337 144.917 287.754 Q141.862 283.147 141.862 274.421 Q141.862 265.671 144.917 261.087 Q147.996 256.481 153.806 256.481 Z" fill="#000000" fill-rule="evenodd" fill-opacity="1" /><path clip-path="url(#clip840)" d="M 0 0 M170.82 285.786 L175.704 285.786 L175.704 291.666 L170.82 291.666 L170.82 285.786 Z" fill="#000000" fill-rule="evenodd" fill-opacity="1" /><path clip-path="url(#clip840)" d="M 0 0 M193.621 261.18 L181.815 279.629 L193.621 279.629 L193.621 261.18 M192.394 257.106 L198.274 257.106 L198.274 279.629 L203.204 279.629 L203.204 283.518 L198.274 283.518 L198.274 291.666 L193.621 291.666 L193.621 283.518 L178.019 283.518 L178.019 279.004 L192.394 257.106 Z" fill="#000000" fill-rule="evenodd" fill-opacity="1" /><path clip-path="url(#clip840)" d="M 0 0 M586.824 12.096 L637.987 12.096 L637.987 18.9825 L616.517 18.9825 L616.517 72.576 L608.294 72.576 L608.294 18.9825 L586.824 18.9825 L586.824 12.096 Z" fill="#000000" fill-rule="evenodd" fill-opacity="1" /><path clip-path="url(#clip840)" d="M 0 0 M683.519 45.1919 L683.519 72.576 L676.066 72.576 L676.066 45.4349 Q676.066 38.994 673.554 35.7938 Q671.042 32.5936 666.019 32.5936 Q659.983 32.5936 656.5 36.4419 Q653.016 40.2903 653.016 46.9338 L653.016 72.576 L645.522 72.576 L645.522 9.54393 L653.016 9.54393 L653.016 34.2544 Q655.689 30.163 659.295 28.1376 Q662.941 26.1121 667.68 26.1121 Q675.498 26.1121 679.509 30.9732 Q683.519 35.7938 683.519 45.1919 Z" fill="#000000" fill-rule="evenodd" fill-opacity="1" /><path clip-path="url(#clip840)" d="M 0 0 M730.145 48.0275 L730.145 51.6733 L695.874 51.6733 Q696.361 59.3701 700.492 63.421 Q704.665 67.4314 712.078 67.4314 Q716.372 67.4314 720.382 66.3781 Q724.433 65.3249 728.403 63.2184 L728.403 70.267 Q724.393 71.9684 720.18 72.8596 Q715.967 73.7508 711.632 73.7508 Q700.776 73.7508 694.416 67.4314 Q688.097 61.1119 688.097 50.3365 Q688.097 39.1965 694.092 32.6746 Q700.128 26.1121 710.336 26.1121 Q719.491 26.1121 724.798 32.0264 Q730.145 37.9003 730.145 48.0275 M722.691 45.84 Q722.61 39.7232 719.248 36.0774 Q715.926 32.4315 710.417 32.4315 Q704.179 32.4315 700.411 35.9558 Q696.685 39.4801 696.117 45.8805 L722.691 45.84 Z" fill="#000000" fill-rule="evenodd" fill-opacity="1" /><path clip-path="url(#clip840)" d="M 0 0 M781.916 32.4315 Q775.92 32.4315 772.437 37.1306 Q768.953 41.7891 768.953 49.9314 Q768.953 58.0738 772.396 62.7728 Q775.88 67.4314 781.916 67.4314 Q787.87 67.4314 791.354 62.7323 Q794.838 58.0333 794.838 49.9314 Q794.838 41.8701 791.354 37.1711 Q787.87 32.4315 781.916 32.4315 M781.916 26.1121 Q791.638 26.1121 797.188 32.4315 Q802.737 38.7509 802.737 49.9314 Q802.737 61.0714 797.188 67.4314 Q791.638 73.7508 781.916 73.7508 Q772.153 73.7508 766.603 67.4314 Q761.094 61.0714 761.094 49.9314 Q761.094 38.7509 766.603 32.4315 Q772.153 26.1121 781.916 26.1121 Z" fill="#000000" fill-rule="evenodd" fill-opacity="1" /><path clip-path="url(#clip840)" d="M 0 0 M836.846 34.1734 Q835.59 33.4443 834.091 33.1202 Q832.633 32.7556 830.851 32.7556 Q824.531 32.7556 821.128 36.8875 Q817.766 40.9789 817.766 48.6757 L817.766 72.576 L810.272 72.576 L810.272 27.2059 L817.766 27.2059 L817.766 34.2544 Q820.116 30.1225 823.883 28.1376 Q827.65 26.1121 833.038 26.1121 Q833.808 26.1121 834.739 26.2337 Q835.671 26.3147 836.805 26.5172 L836.846 34.1734 Z" fill="#000000" fill-rule="evenodd" fill-opacity="1" /><path clip-path="url(#clip840)" d="M 0 0 M877.233 49.9314 Q877.233 41.7081 873.831 37.0496 Q870.468 32.3505 864.554 32.3505 Q858.64 32.3505 855.237 37.0496 Q851.875 41.7081 851.875 49.9314 Q851.875 58.1548 855.237 62.8538 Q858.64 67.5124 864.554 67.5124 Q870.468 67.5124 873.831 62.8538 Q877.233 58.1548 877.233 49.9314 M851.875 34.0924 Q854.224 30.0415 857.789 28.0971 Q861.394 26.1121 866.377 26.1121 Q874.641 26.1121 879.785 32.6746 Q884.971 39.2371 884.971 49.9314 Q884.971 60.6258 879.785 67.1883 Q874.641 73.7508 866.377 73.7508 Q861.394 73.7508 857.789 71.8063 Q854.224 69.8214 851.875 65.7705 L851.875 72.576 L844.381 72.576 L844.381 9.54393 L851.875 9.54393 L851.875 34.0924 Z" fill="#000000" fill-rule="evenodd" fill-opacity="1" /><path clip-path="url(#clip840)" d="M 0 0 M892.789 27.2059 L900.243 27.2059 L900.243 72.576 L892.789 72.576 L892.789 27.2059 M892.789 9.54393 L900.243 9.54393 L900.243 18.9825 L892.789 18.9825 L892.789 9.54393 Z" fill="#000000" fill-rule="evenodd" fill-opacity="1" /><path clip-path="url(#clip840)" d="M 0 0 M915.433 14.324 L915.433 27.2059 L930.786 27.2059 L930.786 32.9987 L915.433 32.9987 L915.433 57.6282 Q915.433 63.1779 916.932 64.7578 Q918.472 66.3376 923.13 66.3376 L930.786 66.3376 L930.786 72.576 L923.13 72.576 Q914.502 72.576 911.221 69.3758 Q907.939 66.1351 907.939 57.6282 L907.939 32.9987 L902.471 32.9987 L902.471 27.2059 L907.939 27.2059 L907.939 14.324 L915.433 14.324 Z" fill="#000000" fill-rule="evenodd" fill-opacity="1" /><path clip-path="url(#clip840)" d="M 0 0 M982.557 32.4315 Q976.562 32.4315 973.078 37.1306 Q969.594 41.7891 969.594 49.9314 Q969.594 58.0738 973.037 62.7728 Q976.521 67.4314 982.557 67.4314 Q988.512 67.4314 991.996 62.7323 Q995.479 58.0333 995.479 49.9314 Q995.479 41.8701 991.996 37.1711 Q988.512 32.4315 982.557 32.4315 M982.557 26.1121 Q992.279 26.1121 997.829 32.4315 Q1003.38 38.7509 1003.38 49.9314 Q1003.38 61.0714 997.829 67.4314 Q992.279 73.7508 982.557 73.7508 Q972.794 73.7508 967.245 67.4314 Q961.735 61.0714 961.735 49.9314 Q961.735 38.7509 967.245 32.4315 Q972.794 26.1121 982.557 26.1121 Z" fill="#000000" fill-rule="evenodd" fill-opacity="1" /><path clip-path="url(#clip840)" d="M 0 0 M1034.17 9.54393 L1034.17 15.7418 L1027.04 15.7418 Q1023.03 15.7418 1021.45 17.3622 Q1019.91 18.9825 1019.91 23.1955 L1019.91 27.2059 L1032.18 27.2059 L1032.18 32.9987 L1019.91 32.9987 L1019.91 72.576 L1012.41 72.576 L1012.41 32.9987 L1005.28 32.9987 L1005.28 27.2059 L1012.41 27.2059 L1012.41 24.0462 Q1012.41 16.471 1015.94 13.0277 Q1019.46 9.54393 1027.12 9.54393 L1034.17 9.54393 Z" fill="#000000" fill-rule="evenodd" fill-opacity="1" /><path clip-path="url(#clip840)" d="M 0 0 M1075.73 14.324 L1075.73 27.2059 L1091.08 27.2059 L1091.08 32.9987 L1075.73 32.9987 L1075.73 57.6282 Q1075.73 63.1779 1077.23 64.7578 Q1078.77 66.3376 1083.42 66.3376 L1091.08 66.3376 L1091.08 72.576 L1083.42 72.576 Q1074.8 72.576 1071.51 69.3758 Q1068.23 66.1351 1068.23 57.6282 L1068.23 32.9987 L1062.76 32.9987 L1062.76 27.2059 L1068.23 27.2059 L1068.23 14.324 L1075.73 14.324 Z" fill="#000000" fill-rule="evenodd" fill-opacity="1" /><path clip-path="url(#clip840)" d="M 0 0 M1136.61 45.1919 L1136.61 72.576 L1129.16 72.576 L1129.16 45.4349 Q1129.16 38.994 1126.65 35.7938 Q1124.14 32.5936 1119.11 32.5936 Q1113.08 32.5936 1109.59 36.4419 Q1106.11 40.2903 1106.11 46.9338 L1106.11 72.576 L1098.62 72.576 L1098.62 9.54393 L1106.11 9.54393 L1106.11 34.2544 Q1108.78 30.163 1112.39 28.1376 Q1116.03 26.1121 1120.77 26.1121 Q1128.59 26.1121 1132.6 30.9732 Q1136.61 35.7938 1136.61 45.1919 Z" fill="#000000" fill-rule="evenodd" fill-opacity="1" /><path clip-path="url(#clip840)" d="M 0 0 M1183.24 48.0275 L1183.24 51.6733 L1148.97 51.6733 Q1149.45 59.3701 1153.59 63.421 Q1157.76 67.4314 1165.17 67.4314 Q1169.47 67.4314 1173.48 66.3781 Q1177.53 65.3249 1181.5 63.2184 L1181.5 70.267 Q1177.49 71.9684 1173.27 72.8596 Q1169.06 73.7508 1164.73 73.7508 Q1153.87 73.7508 1147.51 67.4314 Q1141.19 61.1119 1141.19 50.3365 Q1141.19 39.1965 1147.19 32.6746 Q1153.22 26.1121 1163.43 26.1121 Q1172.58 26.1121 1177.89 32.0264 Q1183.24 37.9003 1183.24 48.0275 M1175.79 45.84 Q1175.7 39.7232 1172.34 36.0774 Q1169.02 32.4315 1163.51 32.4315 Q1157.27 32.4315 1153.51 35.9558 Q1149.78 39.4801 1149.21 45.8805 L1175.79 45.84 Z" fill="#000000" fill-rule="evenodd" fill-opacity="1" /><path clip-path="url(#clip840)" d="M 0 0 M1217.75 12.096 L1225.94 12.096 L1225.94 36.8875 L1255.67 36.8875 L1255.67 12.096 L1263.85 12.096 L1263.85 72.576 L1255.67 72.576 L1255.67 43.7741 L1225.94 43.7741 L1225.94 72.576 L1217.75 72.576 L1217.75 12.096 Z" fill="#000000" fill-rule="evenodd" fill-opacity="1" /><path clip-path="url(#clip840)" d="M 0 0 M1310.48 48.0275 L1310.48 51.6733 L1276.21 51.6733 Q1276.69 59.3701 1280.83 63.421 Q1285 67.4314 1292.41 67.4314 Q1296.7 67.4314 1300.71 66.3781 Q1304.77 65.3249 1308.74 63.2184 L1308.74 70.267 Q1304.73 71.9684 1300.51 72.8596 Q1296.3 73.7508 1291.96 73.7508 Q1281.11 73.7508 1274.75 67.4314 Q1268.43 61.1119 1268.43 50.3365 Q1268.43 39.1965 1274.42 32.6746 Q1280.46 26.1121 1290.67 26.1121 Q1299.82 26.1121 1305.13 32.0264 Q1310.48 37.9003 1310.48 48.0275 M1303.02 45.84 Q1302.94 39.7232 1299.58 36.0774 Q1296.26 32.4315 1290.75 32.4315 Q1284.51 32.4315 1280.74 35.9558 Q1277.02 39.4801 1276.45 45.8805 L1303.02 45.84 M1295.85 6.22219 L1303.92 6.22219 L1290.71 21.4536 L1284.51 21.4536 L1295.85 6.22219 Z" fill="#000000" fill-rule="evenodd" fill-opacity="1" /><path clip-path="url(#clip840)" d="M 0 0 M1356.01 45.1919 L1356.01 72.576 L1348.56 72.576 L1348.56 45.4349 Q1348.56 38.994 1346.04 35.7938 Q1343.53 32.5936 1338.51 32.5936 Q1332.47 32.5936 1328.99 36.4419 Q1325.51 40.2903 1325.51 46.9338 L1325.51 72.576 L1318.01 72.576 L1318.01 27.2059 L1325.51 27.2059 L1325.51 34.2544 Q1328.18 30.163 1331.79 28.1376 Q1335.43 26.1121 1340.17 26.1121 Q1347.99 26.1121 1352 30.9732 Q1356.01 35.7938 1356.01 45.1919 Z" fill="#000000" fill-rule="evenodd" fill-opacity="1" /><path clip-path="url(#clip840)" d="M 0 0 M1381.41 32.4315 Q1375.41 32.4315 1371.93 37.1306 Q1368.45 41.7891 1368.45 49.9314 Q1368.45 58.0738 1371.89 62.7728 Q1375.37 67.4314 1381.41 67.4314 Q1387.36 67.4314 1390.85 62.7323 Q1394.33 58.0333 1394.33 49.9314 Q1394.33 41.8701 1390.85 37.1711 Q1387.36 32.4315 1381.41 32.4315 M1381.41 26.1121 Q1391.13 26.1121 1396.68 32.4315 Q1402.23 38.7509 1402.23 49.9314 Q1402.23 61.0714 1396.68 67.4314 Q1391.13 73.7508 1381.41 73.7508 Q1371.65 73.7508 1366.1 67.4314 Q1360.59 61.0714 1360.59 49.9314 Q1360.59 38.7509 1366.1 32.4315 Q1371.65 26.1121 1381.41 26.1121 Z" fill="#000000" fill-rule="evenodd" fill-opacity="1" /><path clip-path="url(#clip840)" d="M 0 0 M1447.76 45.1919 L1447.76 72.576 L1440.31 72.576 L1440.31 45.4349 Q1440.31 38.994 1437.8 35.7938 Q1435.29 32.5936 1430.26 32.5936 Q1424.23 32.5936 1420.74 36.4419 Q1417.26 40.2903 1417.26 46.9338 L1417.26 72.576 L1409.77 72.576 L1409.77 27.2059 L1417.26 27.2059 L1417.26 34.2544 Q1419.93 30.163 1423.54 28.1376 Q1427.18 26.1121 1431.92 26.1121 Q1439.74 26.1121 1443.75 30.9732 Q1447.76 35.7938 1447.76 45.1919 Z" fill="#000000" fill-rule="evenodd" fill-opacity="1" /><path clip-path="url(#clip840)" d="M 0 0 M1451.81 46.5287 L1473.65 46.5287 L1473.65 53.1722 L1451.81 53.1722 L1451.81 46.5287 Z" fill="#000000" fill-rule="evenodd" fill-opacity="1" /><path clip-path="url(#clip840)" d="M 0 0 M1481.79 12.096 L1489.97 12.096 L1489.97 36.8875 L1519.71 36.8875 L1519.71 12.096 L1527.89 12.096 L1527.89 72.576 L1519.71 72.576 L1519.71 43.7741 L1489.97 43.7741 L1489.97 72.576 L1481.79 72.576 L1481.79 12.096 Z" fill="#000000" fill-rule="evenodd" fill-opacity="1" /><path clip-path="url(#clip840)" d="M 0 0 M1574.52 48.0275 L1574.52 51.6733 L1540.24 51.6733 Q1540.73 59.3701 1544.86 63.421 Q1549.04 67.4314 1556.45 67.4314 Q1560.74 67.4314 1564.75 66.3781 Q1568.8 65.3249 1572.77 63.2184 L1572.77 70.267 Q1568.76 71.9684 1564.55 72.8596 Q1560.34 73.7508 1556 73.7508 Q1545.15 73.7508 1538.79 67.4314 Q1532.47 61.1119 1532.47 50.3365 Q1532.47 39.1965 1538.46 32.6746 Q1544.5 26.1121 1554.71 26.1121 Q1563.86 26.1121 1569.17 32.0264 Q1574.52 37.9003 1574.52 48.0275 M1567.06 45.84 Q1566.98 39.7232 1563.62 36.0774 Q1560.3 32.4315 1554.79 32.4315 Q1548.55 32.4315 1544.78 35.9558 Q1541.06 39.4801 1540.49 45.8805 L1567.06 45.84 Z" fill="#000000" fill-rule="evenodd" fill-opacity="1" /><path clip-path="url(#clip840)" d="M 0 0 M1582.33 27.2059 L1589.79 27.2059 L1589.79 72.576 L1582.33 72.576 L1582.33 27.2059 M1582.33 9.54393 L1589.79 9.54393 L1589.79 18.9825 L1582.33 18.9825 L1582.33 9.54393 Z" fill="#000000" fill-rule="evenodd" fill-opacity="1" /><path clip-path="url(#clip840)" d="M 0 0 M1597.61 9.54393 L1605.06 9.54393 L1605.06 72.576 L1597.61 72.576 L1597.61 9.54393 Z" fill="#000000" fill-rule="evenodd" fill-opacity="1" /><path clip-path="url(#clip840)" d="M 0 0 M1651.69 48.0275 L1651.69 51.6733 L1617.41 51.6733 Q1617.9 59.3701 1622.03 63.421 Q1626.21 67.4314 1633.62 67.4314 Q1637.91 67.4314 1641.92 66.3781 Q1645.97 65.3249 1649.94 63.2184 L1649.94 70.267 Q1645.93 71.9684 1641.72 72.8596 Q1637.51 73.7508 1633.17 73.7508 Q1622.32 73.7508 1615.96 67.4314 Q1609.64 61.1119 1609.64 50.3365 Q1609.64 39.1965 1615.63 32.6746 Q1621.67 26.1121 1631.88 26.1121 Q1641.03 26.1121 1646.34 32.0264 Q1651.69 37.9003 1651.69 48.0275 M1644.23 45.84 Q1644.15 39.7232 1640.79 36.0774 Q1637.47 32.4315 1631.96 32.4315 Q1625.72 32.4315 1621.95 35.9558 Q1618.22 39.4801 1617.66 45.8805 L1644.23 45.84 Z" fill="#000000" fill-rule="evenodd" fill-opacity="1" /><path clip-path="url(#clip840)" d="M 0 0 M1688.43 28.5427 L1688.43 35.5912 Q1685.27 33.9709 1681.86 33.1607 Q1678.46 32.3505 1674.82 32.3505 Q1669.27 32.3505 1666.47 34.0519 Q1663.72 35.7533 1663.72 39.156 Q1663.72 41.7486 1665.7 43.2475 Q1667.69 44.7058 1673.68 46.0426 L1676.23 46.6097 Q1684.17 48.3111 1687.5 51.4303 Q1690.86 54.509 1690.86 60.0587 Q1690.86 66.3781 1685.83 70.0644 Q1680.85 73.7508 1672.1 73.7508 Q1668.46 73.7508 1664.49 73.0216 Q1660.56 72.3329 1656.18 70.9151 L1656.18 63.2184 Q1660.31 65.3654 1664.32 66.4591 Q1668.33 67.5124 1672.26 67.5124 Q1677.53 67.5124 1680.37 65.73 Q1683.2 63.9071 1683.2 60.6258 Q1683.2 57.5877 1681.14 55.9673 Q1679.11 54.3469 1672.18 52.8481 L1669.59 52.2405 Q1662.66 50.7821 1659.58 47.7845 Q1656.51 44.7463 1656.51 39.4801 Q1656.51 33.0797 1661.04 29.5959 Q1665.58 26.1121 1673.92 26.1121 Q1678.06 26.1121 1681.7 26.7198 Q1685.35 27.3274 1688.43 28.5427 Z" fill="#000000" fill-rule="evenodd" fill-opacity="1" /><path clip-path="url(#clip840)" d="M 0 0 M1753.97 28.5427 L1753.97 35.5912 Q1750.81 33.9709 1747.41 33.1607 Q1744.01 32.3505 1740.36 32.3505 Q1734.81 32.3505 1732.01 34.0519 Q1729.26 35.7533 1729.26 39.156 Q1729.26 41.7486 1731.25 43.2475 Q1733.23 44.7058 1739.23 46.0426 L1741.78 46.6097 Q1749.72 48.3111 1753.04 51.4303 Q1756.4 54.509 1756.4 60.0587 Q1756.4 66.3781 1751.38 70.0644 Q1746.4 73.7508 1737.65 73.7508 Q1734 73.7508 1730.03 73.0216 Q1726.1 72.3329 1721.73 70.9151 L1721.73 63.2184 Q1725.86 65.3654 1729.87 66.4591 Q1733.88 67.5124 1737.81 67.5124 Q1743.07 67.5124 1745.91 65.73 Q1748.74 63.9071 1748.74 60.6258 Q1748.74 57.5877 1746.68 55.9673 Q1744.65 54.3469 1737.73 52.8481 L1735.13 52.2405 Q1728.21 50.7821 1725.13 47.7845 Q1722.05 44.7463 1722.05 39.4801 Q1722.05 33.0797 1726.59 29.5959 Q1731.12 26.1121 1739.47 26.1121 Q1743.6 26.1121 1747.25 26.7198 Q1750.89 27.3274 1753.97 28.5427 Z" fill="#000000" fill-rule="evenodd" fill-opacity="1" /><path clip-path="url(#clip840)" d="M 0 0 M1783.1 76.7889 Q1779.94 84.8907 1776.94 87.3618 Q1773.94 89.8329 1768.92 89.8329 L1762.96 89.8329 L1762.96 83.5945 L1767.34 83.5945 Q1770.42 83.5945 1772.12 82.1361 Q1773.82 80.6778 1775.89 75.2496 L1777.22 71.8468 L1758.87 27.2059 L1766.77 27.2059 L1780.95 62.6918 L1795.13 27.2059 L1803.03 27.2059 L1783.1 76.7889 Z" fill="#000000" fill-rule="evenodd" fill-opacity="1" /><path clip-path="url(#clip840)" d="M 0 0 M1839.77 28.5427 L1839.77 35.5912 Q1836.61 33.9709 1833.21 33.1607 Q1829.8 32.3505 1826.16 32.3505 Q1820.61 32.3505 1817.81 34.0519 Q1815.06 35.7533 1815.06 39.156 Q1815.06 41.7486 1817.04 43.2475 Q1819.03 44.7058 1825.02 46.0426 L1827.58 46.6097 Q1835.52 48.3111 1838.84 51.4303 Q1842.2 54.509 1842.2 60.0587 Q1842.2 66.3781 1837.18 70.0644 Q1832.19 73.7508 1823.44 73.7508 Q1819.8 73.7508 1815.83 73.0216 Q1811.9 72.3329 1807.52 70.9151 L1807.52 63.2184 Q1811.66 65.3654 1815.67 66.4591 Q1819.68 67.5124 1823.61 67.5124 Q1828.87 67.5124 1831.71 65.73 Q1834.54 63.9071 1834.54 60.6258 Q1834.54 57.5877 1832.48 55.9673 Q1830.45 54.3469 1823.52 52.8481 L1820.93 52.2405 Q1814.01 50.7821 1810.93 47.7845 Q1807.85 44.7463 1807.85 39.4801 Q1807.85 33.0797 1812.38 29.5959 Q1816.92 26.1121 1825.27 26.1121 Q1829.4 26.1121 1833.04 26.7198 Q1836.69 27.3274 1839.77 28.5427 Z" fill="#000000" fill-rule="evenodd" fill-opacity="1" /><path clip-path="url(#clip840)" d="M 0 0 M1857.39 14.324 L1857.39 27.2059 L1872.74 27.2059 L1872.74 32.9987 L1857.39 32.9987 L1857.39 57.6282 Q1857.39 63.1779 1858.89 64.7578 Q1860.43 66.3376 1865.09 66.3376 L1872.74 66.3376 L1872.74 72.576 L1865.09 72.576 Q1856.46 72.576 1853.18 69.3758 Q1849.9 66.1351 1849.9 57.6282 L1849.9 32.9987 L1844.43 32.9987 L1844.43 27.2059 L1849.9 27.2059 L1849.9 14.324 L1857.39 14.324 Z" fill="#000000" fill-rule="evenodd" fill-opacity="1" /><path clip-path="url(#clip840)" d="M 0 0 M1919.37 48.0275 L1919.37 51.6733 L1885.1 51.6733 Q1885.58 59.3701 1889.72 63.421 Q1893.89 67.4314 1901.3 67.4314 Q1905.6 67.4314 1909.61 66.3781 Q1913.66 65.3249 1917.63 63.2184 L1917.63 70.267 Q1913.62 71.9684 1909.4 72.8596 Q1905.19 73.7508 1900.86 73.7508 Q1890 73.7508 1883.64 67.4314 Q1877.32 61.1119 1877.32 50.3365 Q1877.32 39.1965 1883.32 32.6746 Q1889.35 26.1121 1899.56 26.1121 Q1908.72 26.1121 1914.02 32.0264 Q1919.37 37.9003 1919.37 48.0275 M1911.92 45.84 Q1911.83 39.7232 1908.47 36.0774 Q1905.15 32.4315 1899.64 32.4315 Q1893.4 32.4315 1889.64 35.9558 Q1885.91 39.4801 1885.34 45.8805 L1911.92 45.84 Z" fill="#000000" fill-rule="evenodd" fill-opacity="1" /><path clip-path="url(#clip840)" d="M 0 0 M1962.51 35.9153 Q1965.31 30.8922 1969.2 28.5022 Q1973.08 26.1121 1978.35 26.1121 Q1985.44 26.1121 1989.29 31.0947 Q1993.14 36.0368 1993.14 45.1919 L1993.14 72.576 L1985.64 72.576 L1985.64 45.4349 Q1985.64 38.913 1983.33 35.7533 Q1981.02 32.5936 1976.28 32.5936 Q1970.49 32.5936 1967.13 36.4419 Q1963.77 40.2903 1963.77 46.9338 L1963.77 72.576 L1956.27 72.576 L1956.27 45.4349 Q1956.27 38.8725 1953.96 35.7533 Q1951.65 32.5936 1946.83 32.5936 Q1941.12 32.5936 1937.76 36.4824 Q1934.4 40.3308 1934.4 46.9338 L1934.4 72.576 L1926.9 72.576 L1926.9 27.2059 L1934.4 27.2059 L1934.4 34.2544 Q1936.95 30.082 1940.51 28.0971 Q1944.08 26.1121 1948.98 26.1121 Q1953.92 26.1121 1957.37 28.6237 Q1960.85 31.1352 1962.51 35.9153 Z" fill="#000000" fill-rule="evenodd" fill-opacity="1" /><path clip-path="url(#clip840)" d="M 0 0 M1306.59 1520.4 L1293.7 1537.74 L1307.26 1556.04 L1300.36 1556.04 L1289.98 1542.04 L1279.6 1556.04 L1272.7 1556.04 L1286.54 1537.39 L1273.87 1520.4 L1280.78 1520.4 L1290.23 1533.1 L1299.69 1520.4 L1306.59 1520.4 Z" fill="#000000" fill-rule="evenodd" fill-opacity="1" /><path clip-path="url(#clip840)" d="M 0 0 M91.3143 771.639 Q97.68 774.122 99.6216 776.477 Q101.563 778.832 101.563 782.779 L101.563 787.458 L96.6615 787.458 L96.6615 784.02 Q96.6615 781.601 95.5157 780.265 Q94.3699 778.928 90.1048 777.305 L87.4312 776.254 L52.3562 790.673 L52.3562 784.466 L80.238 773.326 L52.3562 762.186 L52.3562 755.979 L91.3143 771.639 Z" fill="#000000" fill-rule="evenodd" fill-opacity="1" /><polyline clip-path="url(#clip842)" style="stroke:#009af9; stroke-width:4; stroke-opacity:1; fill:none" points="
  1299.68,689.484 1405.04,690.111 1509.14,692.019 1610.72,695.296 1708.6,700.079 1801.63,706.548 1888.76,714.912 1969.04,725.396 2041.62,738.226 2105.82,753.608 
  2161.09,771.715 2207.04,792.669 2243.45,816.525 2270.26,843.262 2287.58,872.77 2295.65,904.847 2294.86,939.192 2285.71,975.411 2268.8,1013.02 2244.77,1051.44 
  2214.34,1090.04 2178.22,1128.11 2137.11,1164.93 2091.7,1199.74 2042.61,1231.77 1990.41,1260.3 1935.62,1284.63 1878.65,1304.14 1819.88,1318.29 1759.58,1326.64 
  1697.98,1328.85 1635.29,1324.74 1571.65,1314.22 1507.2,1297.35 1442.08,1274.33 1376.46,1245.46 1310.54,1211.17 1244.57,1171.99 1178.89,1128.51 1113.9,1081.42 
  1050.1,1031.43 988.073,979.292 928.49,925.776 872.105,871.636 819.737,817.61 772.252,764.4 730.535,712.659 695.468,662.979 667.891,615.886 648.576,571.828 
  638.187,531.175 637.257,494.215 646.149,461.152 665.043,432.115 693.916,407.159 732.533,386.275 780.442,369.403 836.984,356.441 901.308,347.259 972.384,341.714 
  1049.03,339.664 1129.96,340.977 1213.78,345.544 1299.06,353.285 1384.35,364.154 1468.23,378.136 1549.33,395.251 1626.37,415.541 1698.21,439.064 1763.82,465.881 
  1822.36,496.047 1873.17,529.588 1915.77,566.494 1949.88,606.701 1975.4,650.081 1992.44,696.429 2001.22,745.457 2002.14,796.788 1995.72,849.953 1982.56,904.396 
  1963.31,959.477 1938.67,1014.48 1909.36,1068.63 1876.07,1121.1 1839.44,1171.05 1800.08,1217.61 1758.53,1259.95 1715.24,1297.28 1670.61,1328.84 1624.95,1354.01 
  1578.5,1372.24 1531.45,1383.13 1483.94,1386.4 1436.08,1381.93 1387.94,1369.75 1339.61,1350.06 1291.19,1323.17 1242.79,1289.56 1194.59,1249.79 1146.8,1204.55 
  1099.72,1154.58 1053.7,1100.69 1009.18,1043.72 966.668,984.508 926.743,923.894 890.04,862.68 857.237,801.627 829.035,741.436 806.136,682.74 789.215,626.098 
  778.894,571.989 775.712,520.807 780.099,472.868 792.349,428.408 812.603,387.592 840.83,350.519 876.811,317.231 920.141,287.725 970.228,261.966 1026.3,239.896 
  1087.43,221.447 1152.55,206.552 1220.45,195.157 1289.87,187.223 1359.47,182.739 1427.93,181.719 1493.9,184.203 1556.12,190.255 1613.41,199.959 1664.72,213.405 
  1709.14,230.689 1745.93,251.895 1774.54,277.088 1794.62,306.302 1806.02,339.531 1808.78,376.72 1803.13,417.759 1789.45,462.473 1768.29,510.623 1740.28,561.902 
  1706.17,615.932 1666.74,672.27 1622.8,730.407 1575.17,789.772 1524.62,849.74 1471.88,909.641 1417.61,968.764 1362.4,1026.38 1306.73,1081.73 1251.01,1134.07 
  1195.55,1182.67 1140.59,1226.84 1086.31,1265.94 1032.81,1299.42 980.151,1326.79 928.387,1347.69 877.549,1361.86 827.679,1369.18 778.84,1369.66 731.138,1363.45 
  684.726,1350.8 639.826,1332.12 596.724,1307.92 555.784,1278.78 517.446,1245.38 482.221,1208.44 450.686,1168.72 423.469,1127 401.238,1084.01 384.675,1040.5 
  374.458,997.126 371.238,954.512 375.611,913.193 388.095,873.62 409.099,836.156 438.909,801.072 477.662,768.553 525.344,738.703 581.771,711.551 646.587,687.07 
  719.265,665.182 799.112,645.781 885.283,628.744 976.791,613.952 1072.53,601.3 1171.28,590.709 1271.75,582.143 1372.6,575.609 1472.45,571.161 1569.93,568.905 
  1663.7,568.989 1752.46,571.597 1835.01,576.936 1910.27,585.226 1977.27,596.681 2035.24,611.491 2083.54,629.811 2121.76,651.742 2149.66,677.314 2167.2,706.473 
  2174.54,739.078 2172,774.892 2160.06,813.58 2139.34,854.71 2110.53,897.755 2074.42,942.106 2031.83,987.083 1983.59,1031.95 1930.52,1075.92 1873.39,1118.21 
  1812.92,1158 1749.75,1194.51 1684.46,1227.02 1617.53,1254.84 1549.37,1277.39 1480.33,1294.17 1410.7,1304.81 1340.72,1309.08 1270.62,1306.87 1200.6,1298.21 
  1130.91,1283.28 1061.8,1262.38 993.58,1235.95 926.624,1204.52 861.379,1168.73 798.367,1129.28 738.197,1086.94 681.552,1042.5 629.183,996.773 581.894,950.539 
  540.519,904.568 505.904,859.575 478.877,816.215 460.208,775.064 450.586,736.611 450.581,701.25 460.625,669.28 480.988,640.902 511.757,616.226 552.821,595.276 
  603.865,577.997 664.383,564.273 733.677,553.942 810.875,546.81 894.95,542.666 984.743,541.303 1078.99,542.528 1176.36,546.177 1275.47,552.125 1374.91,560.292 
  1473.32,570.642 1569.34,583.188 1661.72,597.981 1749.27,615.105 1830.95,634.661 1905.83,656.762 1973.15,681.51 2032.3,708.979 2082.86,739.206 2124.59,772.168 
  2157.4,807.78 2181.38,845.876 2196.77,886.205 2203.93,928.425 2203.36,972.103 2195.63,1016.72 2181.37,1061.69 2161.27,1106.33 2136,1149.94 2106.26,1191.74 
  2072.68,1230.96 2035.87,1266.83 1996.35,1298.6 1954.59,1325.57 1910.99,1347.1 1865.85,1362.65 1819.42,1371.78 1771.88,1374.16 1723.33,1369.62 1673.86,1358.09 
  1623.51,1339.67 1572.32,1314.55 1520.32,1283.08 1467.57,1245.71 1414.15,1202.99 1360.22,1155.53 1305.97,1104.03 1251.69,1049.2 1197.75,991.816 1144.59,932.623 
  1092.76,872.374 1042.87,811.794 995.627,751.575 951.765,692.362 912.073,634.746 877.347,579.258 848.371,526.363 825.881,476.459 810.542,429.877 802.911,386.874 
  803.418,347.646 812.333,312.322 829.754,280.975 855.59,253.626 889.555,230.256 931.164,210.809 979.743,195.211 1034.45,183.372 1094.27,175.202 1158.09,170.621 
  1224.67,169.561 1292.71,171.979 1360.89,177.856 1427.89,187.2 1492.42,200.043 1553.27,216.44 1609.34,236.458 1659.67,260.167 1703.45,287.633 1740.05,318.904 
  1768.99,354 1790.03,392.901 1803.08,435.533 1808.25,481.766 1805.78,531.399 1796.07,584.158 1779.65,639.69 1757.11,697.561 1729.13,757.261 1696.41,818.201 
  1659.66,879.723 1619.57,941.104 1576.79,1001.57 1531.93,1060.32 1485.51,1116.52 1438.01,1169.33 1389.79,1217.93 1341.18,1261.57 1292.4,1299.5 1243.65,1331.11 
  1195.04,1355.85 1146.69,1373.33 1098.65,1383.27 1051.02,1385.56 1003.87,1380.21 957.318,1367.4 911.527,1347.44 866.712,1320.81 823.149,1288.08 781.192,1249.91 
  741.265,1207.07 703.874,1160.35 669.589,1110.62 639.041,1058.71 612.905,1005.45 591.885,951.653 576.686,898.06 567.993,845.35 566.439,794.123 572.581,744.894 
  586.871,698.085 609.63,654.031 641.026,612.977 681.057,575.088 729.537,540.456 786.086,509.115 850.137,481.052 920.935,456.22 997.554,434.56 1078.91,416.005 
  1163.79,400.502 1250.86,388.019 1338.73,378.552 1425.96,372.132 1511.09,368.827 1592.7,368.738 1669.43,371.993 1740.03,378.737 1803.36,389.124 1858.46,403.302 
  1904.55,421.399 1941.02,443.51 1967.52,469.677 1983.89,499.889 1990.16,534.06 1986.6,572.029 1973.61,613.55 1951.8,658.295 1921.85,705.848 1884.58,755.716 
  1840.84,807.33 1791.51,860.054 1737.48,913.198 1679.6,966.029 1618.67,1017.79 1555.42,1067.7 1490.48,1115 1424.42,1158.94 1357.7,1198.82 1290.7,1234.01 
  1223.73,1263.94 1157.04,1288.14 1090.83,1306.28 1025.26,1318.11 960.495,1323.54 896.693,1322.58 834.046,1315.42 772.781,1302.33 713.179,1283.73 655.588,1260.14 
  600.423,1232.16 548.178,1200.48 499.412,1165.82 454.752,1128.94 414.877,1090.61 380.502,1051.59 352.358,1012.59 331.168,974.284 317.624,937.271 312.357,902.072 
  315.91,869.118 328.723,838.747 351.1,811.196 383.197,786.607 425.012,765.029 476.372,746.43 536.939,730.706 606.208,717.696 683.521,707.199 768.074,698.989 
  858.937,692.83 955.07,688.5 1055.35,685.798 1158.57,684.564 1263.5,684.684 1368.86,686.098 1473.39,688.808 1575.84,692.869 1674.98,698.392 1769.66,705.533 
  1858.81,714.481 1941.45,725.446 2016.72,738.644 2083.9,754.278 2142.39,772.521 2191.78,793.504 2231.79,817.298 2262.34,843.899 2283.47,873.217 2295.41,905.073 
  2298.49,939.193 2293.19,975.209 2280.05,1012.66 2259.72,1051 2232.87,1089.61 2200.22,1127.82 2162.45,1164.89 2120.24,1200.08 2074.23,1232.63 2024.99,1261.82 
  1973.04,1286.94 1918.81,1307.35 1862.68,1322.49 1804.93,1331.91 1745.8,1335.23 1685.47,1332.24 1624.1,1322.83 1561.8,1307.03 1498.7,1284.98 1434.92,1256.97 
  1370.63,1223.4 1306.04,1184.75 1241.43,1141.61 1177.15,1094.63 1113.62,1044.51 1051.38,991.984 991.053,937.813 933.329,882.748 878.986,827.526 828.861,772.854 
  783.83,719.398 744.78,667.768 712.577,618.512 688.03,572.104 671.865,528.943 664.695,489.352 666.988,453.573 679.037,421.772 700.938,394.041 732.58,370.406 
  773.643,350.837 823.594,335.259 881.698,323.564 947.028,315.625 1018.5,311.307 1094.88,310.48 1174.84,313.031 1256.98,318.873 1339.86,327.947 1422.06,340.228 
  1502.17,355.722 1578.87,374.461 1650.96,396.499 1717.35,421.895 1777.1,450.708 1829.49,482.978 1873.93,518.714 1910.06,557.877 1937.71,600.373 1956.88,646.035 
  1967.74,694.619 1970.63,745.793 1966.01,799.135 1954.44,854.135 1936.56,910.196 1913.07,966.642 1884.66,1022.72 1852.04,1077.64 1815.87,1130.55 1776.8,1180.6 
  1735.37,1226.92 1692.09,1268.69 1647.38,1305.11 1601.58,1335.49 1554.97,1359.21 1507.77,1375.78 1460.12,1384.83 1412.16,1386.15 1363.99,1379.66 1315.68,1365.47 
  1267.34,1343.81 1219.08,1315.06 1171.07,1279.75 1123.51,1238.48 1076.67,1191.99 1030.9,1141.04 986.608,1086.47 944.285,1029.13 904.492,969.878 867.849,909.535 
  835.026,848.902 806.719,788.723 783.63,729.677 766.441,672.367 755.789,617.319 752.238,564.974 756.246,515.691 768.144,469.743 788.109,427.329 816.153,388.577 
  852.102,353.554 895.595,322.275 946.081,294.717 1002.83,270.832 1064.93,250.556 1131.33,233.823 1200.87,220.577 1272.26,210.778 1344.16,204.408 1415.22,201.48 
  1484.08,202.03 1549.42,206.122 1610.03,213.839 1664.78,225.279 1712.69,240.543 1752.97,259.725 1784.99,282.9 1808.34,310.115 1822.8,341.379 1828.34,376.652 
  1825.14,415.837 1813.56,458.777 1794.09,505.244 1767.36,554.947 1734.11,607.521 1695.12,662.533 1651.22,719.486 1603.25,777.82 1552.01,836.921 1498.27,896.125 
  1442.73,954.732 1386.01,1012.01 1328.65,1067.23 1271.09,1119.63 1213.69,1168.5 1156.72,1213.15 1100.39,1252.94 1044.82,1287.29 990.101,1315.72 936.297,1337.83 
  883.449,1353.37 831.606,1362.2 780.836,1364.3 731.237,1359.79 682.958,1348.92 636.207,1332.05 591.267,1309.67 548.491,1282.35 508.302,1250.75 471.2,1215.57 
  437.753,1177.56 408.58,1137.47 384.343,1096.05 365.721,1054.04 353.396,1012.1 348.023,970.855 350.209,930.843 360.484,892.525 379.28,856.268 406.907,822.353 
  443.539,790.97 489.193,762.225 543.724,736.147 606.82,712.705 678.001,691.813 756.623,673.353 841.89,657.187 932.865,643.174 1028.49,631.186 1127.59,621.121 
  1228.93,612.914 1331.2,606.546 1433.05,602.047 1533.13,599.501 1630.1,599.04 1722.67,600.836 1809.62,605.092 1889.83,612.031 1962.29,621.88 2026.14,634.851 
  2080.7,651.127 2125.46,670.843 2160.07,694.072 2184.42,720.812 2198.54,750.973 2202.67,784.37 2197.19,820.722 2182.64,859.648 2159.65,900.669 2128.96,943.22 
  2091.35,986.657 2047.62,1030.27 1998.59,1073.3 1945.04,1114.95 1887.7,1154.43 1827.25,1190.94 1764.27,1223.74 1699.3,1252.11 1632.77,1275.43 1565.06,1293.17 
  1496.47,1304.91 1427.27,1310.35 1357.68,1309.34 1287.92,1301.84 1218.19,1287.98 1148.74,1268 1079.85,1242.3 1011.84,1211.36 945.126,1175.77 880.185,1136.22 
  817.581,1093.44 757.96,1048.22 702.043,1001.35 650.616,953.631 604.513,905.851 564.591,858.747 531.702,813.004 506.668,769.239 490.242,727.988 483.087,689.699 
  485.735,654.726 498.568,623.329 521.786,595.671 555.398,571.828 599.209,551.796 652.822,535.502 715.641,522.819 786.879,513.581 865.576,507.595 950.625,504.662 
  1040.8,504.593 1134.77,507.218 1231.16,512.399 1328.55,520.038 1425.53,530.083 1520.7,542.521 1612.75,557.385 1700.46,574.735 1782.68,594.66 1858.45,617.254 
  1926.93,642.608 1987.46,670.793 2039.54,701.842 2082.88,735.739 2117.34,772.403 2142.96,811.677 2159.95,853.32 2168.65,897.001 2169.51,942.301 2163.11,988.709 
  2150.07,1035.64 2131.07,1082.42 2106.81,1128.33 2077.97,1172.6 2045.21,1214.45 2009.15,1253.08 1970.35,1287.7 1929.28,1317.6 1886.37,1342.09 1841.94,1360.59 
  1796.26,1372.63 1749.51,1377.84 1701.84,1375.99 1653.33,1366.99 1604.03,1350.88 1553.99,1327.85 1503.24,1298.21 1451.85,1262.39 1399.89,1220.93 1347.5,1174.45 
  1294.88,1123.64 1242.29,1069.24 1190.09,1012 1138.69,952.71 1088.63,892.135 1040.49,831.022 994.94,770.082 952.7,709.981 914.524,651.328 881.189,594.676 
  853.461,540.507 832.062,489.236 817.637,441.204 810.73,396.681 811.759,355.871 820.997,318.915 838.548,285.892 864.328,256.833 898.054,231.722 939.251,210.51 
  987.268,193.128 1041.28,179.492 1100.29,169.518 1163.19,163.127 1228.77,160.256 1295.74,160.865 1362.79,164.938 1428.6,172.486 1491.91,183.544 1551.5,198.167 
  1606.29,216.427 1655.3,238.398 1697.73,264.153 1732.93,293.746 1760.46,327.207 1780.04,364.527 1791.6,405.649 1795.24,450.46 1791.22,498.779 1779.94,550.359 
  1761.92,604.874 1737.79,661.923 1708.21,721.026 1673.91,781.631 1635.61,843.116 1594.02,904.793 1549.8,965.922 1503.56,1025.72 1455.86,1083.39 1407.17,1138.09 
  1357.88,1189.03 1308.3,1235.42 1258.68,1276.53 1209.21,1311.7 1160,1340.36 1111.15,1362.06 1062.73,1376.46 1014.81,1383.37 967.447,1382.74 920.748,1374.67 
  874.849,1359.43 829.942,1337.38 786.282,1309.04 744.194,1275.04 704.08,1236.07 666.419,1192.91 631.76,1146.39 600.717,1097.32 573.951,1046.55 552.16,994.882 
  536.05,943.072 526.315,891.824 523.607,841.761 528.51,793.427 541.515,747.274 562.99,703.667 593.158,662.876 632.078,625.089 679.632,590.42 735.516,558.916 
  799.235,530.571 870.108,505.344 947.278,483.169 1029.73,463.975 1116.29,447.698 1205.7,434.29 1296.58,423.734 1387.51,416.049 1477.03,411.288 1563.71,409.546 
  1646.15,410.946 1723.05,415.64 1793.19,423.791 1855.5,435.569 1909.1,451.124 1953.28,470.581 1987.55,494.019 2011.62,521.463 2025.42,552.87 2029.07,588.121 
  2022.89,627.008 2007.37,669.236 1983.15,714.425 1950.96,762.107 1911.63,811.732 1866.03,862.678 1815.04,914.261 1759.52,965.749 1700.31,1016.38 1638.17,1065.36 
  1573.8,1111.91 1507.81,1155.26 1440.7,1194.7 1372.93,1229.56 1304.84,1259.25 1236.73,1283.28 1168.84,1301.27 1101.35,1312.96 1034.46,1318.21 968.341,1317.03 
  903.2,1309.58 839.27,1296.12 776.835,1277.05 716.243,1252.87 657.912,1224.2 602.335,1191.7 550.075,1156.12 501.766,1118.22 458.101,1078.79 419.812,1038.59 
  387.655,998.362 362.382,958.804 344.717,920.541 335.333,884.12 334.817,850.004 343.648,818.555 362.175,790.038 390.595,764.62 428.942,742.375 477.078,723.29 
  534.687,707.278 601.284,694.188 676.218,683.825 758.688,675.965 847.76,670.373 942.384,666.818 1041.41,665.089 1143.64,665.01 1247.79,666.452 1352.58,669.335 
  1456.73,673.637 1558.96,679.394 1658.03,686.692 1752.78,695.664 1842.14,706.476 1925.12,719.314 2000.86,734.372 2068.64,751.834 2127.88,771.855 2178.16,794.547 
  2219.23,819.963 2250.99,848.086 2273.52,878.816 2287.01,911.963 2291.83,947.247 2288.42,984.291 2277.36,1022.63 2259.26,1061.71 2234.8,1100.92 2204.66,1139.58 
  2169.55,1176.96 2130.11,1212.31 2086.97,1244.89 2040.69,1273.97 1991.76,1298.86 1940.62,1318.92 1887.61,1333.6 1833.01,1342.44 1777.03,1345.11 1719.84,1341.37 
  1661.57,1331.15 1602.31,1314.46 1542.15,1291.48 1481.19,1262.49 1419.56,1227.89 1357.42,1188.17 1295.02,1143.92 1232.64,1095.78 1170.69,1044.46 1109.63,990.674 
  1050.04,935.18 992.564,878.72 937.946,822.023 886.988,765.788 840.537,710.674 799.465,657.285 764.632,606.167 736.866,557.798 716.932,512.589 705.495,470.874 
  703.077,432.908 710.038,398.875 726.551,368.884 752.593,342.985 787.942,321.17 832.163,303.388 884.608,289.549 944.429,279.54 1010.61,273.241 1082.01,270.534 
  1157.33,271.31 1235.23,275.486 1314.29,283.002 1393.08,293.832 1470.22,307.976 1544.38,325.465 1614.32,346.348 1678.92,370.685 1737.22,398.536 1788.44,429.948 
  1831.96,464.942 1867.36,503.497 1894.43,545.539 1913.11,590.929 1923.56,639.452 1926.07,690.811 1921.06,744.622 1909.09,800.413 1890.78,857.625 1866.79,915.614 
  1837.85,973.665 1804.65,1031 1767.87,1086.79 1728.15,1140.19 1686.07,1190.32 1642.14,1236.34 1596.8,1277.42 1550.41,1312.82 1503.26,1341.86 1455.59,1363.98 
  1407.56,1378.73 1359.3,1385.81 1310.93,1385.07 1262.54,1376.51 1214.23,1360.29 1166.12,1336.72 1118.36,1306.24 1071.18,1269.42 1024.82,1226.93 979.64,1179.53 
  936.04,1128.04 894.509,1073.29 855.603,1016.17 819.94,957.507 788.185,898.139 761.035,838.841 739.192,780.329 723.347,723.249 714.146,668.167 712.16,615.562 
  717.859,565.827 731.581,519.268 753.519,476.11 783.698,436.505 821.957,400.537 867.944,368.237 921.114,339.591 980.739,314.555 1045.92,293.071 1115.6,275.076 
  1188.58,260.514 1263.59,249.346 1339.26,241.559 1414.19,237.163 1487,236.203 1556.34,238.748 1620.92,244.889 1679.59,254.732 1731.3,268.388 1775.22,285.963 
  
  "/>
</svg>
